<?xml version="1.0" standalone="no"?>
<!DOCTYPE svg PUBLIC "-//W3C//DTD SVG 1.1//EN" "http://www.w3.org/Graphics/SVG/1.1/DTD/svg11.dtd" >
<svg xmlns="http://www.w3.org/2000/svg">
<metadata>
This is a custom SVG webfont generated by Fontspring.
Designer    : FontSite.com
Foundry URL : http://www.fontsite.com
</metadata>
<defs>
<font id="webfont9hIulCAh" horiz-adv-x="500" >
<font-face units-per-em="1000" ascent="770" descent="-230" />
<missing-glyph horiz-adv-x="200" />
<glyph unicode=" "  horiz-adv-x="200" />
<glyph unicode="&#x09;" horiz-adv-x="200" />
<glyph unicode="&#xa0;" horiz-adv-x="200" />
<glyph unicode="!" horiz-adv-x="263" d="M140 158q-1 81 -13 171l-13 99l-11.5 79l-7.5 51t-3.5 30t-1.5 35q0 27 15 42t42 15q56 0 56 -61q0 -56 -18 -186q-2 -13 -6.5 -45.5l-5.5 -40l-4 -30t-3.5 -29.5t-2 -24.5t-1.5 -29t-0.5 -27.5t-0.5 -35v-14h-21zM92 47q0 25 16.5 41t42.5 16t42.5 -15.5t16.5 -40.5 q0 -26 -16.5 -42t-42.5 -16t-42.5 16t-16.5 41z" />
<glyph unicode="&#x22;" horiz-adv-x="393" d="M242 394l-17 274h81l-16 -274h-48zM103 394l-17 274h81l-16 -274h-48z" />
<glyph unicode="#" horiz-adv-x="589" d="M113 0l47 228h-116l7 40h119l27 143h-116l7 40h119l44 216h43l-44 -216h145l45 216h43l-44 -216h109l-6 -40h-113l-27 -143h110l-7 -40h-113l-47 -228h-43l47 228h-146l-47 -228h-43zM213 268h146l27 143h-146z" />
<glyph unicode="$" horiz-adv-x="550" d="M61 18l-2 182h24q4 -110 76 -163q23 -17 43.5 -22.5t57.5 -5.5v289l-63 24q-71 28 -109 74.5t-38 106.5q0 95 80 144q30 19 55.5 26t74.5 11v89h28v-88q51 -6 90 -15l51 -12l26 -2q1 -15 1 -33v-48q0 -4 0.5 -11.5t1 -21t0.5 -25.5q0 -4 2 -34h-24q-7 92 -61 142 q-31 29 -87 36v-268l62 -27q141 -63 141 -184q0 -81 -55.5 -134t-147.5 -60v-88h-28v86q-53 3 -102 14q-69 15 -74 16q-8 2 -23 2zM227 418l33 -15v258q-125 -14 -125 -121q0 -79 92 -122zM288 11q121 21 121 130q0 48 -27.5 80.5t-93.5 62.5v-273z" />
<glyph unicode="%" horiz-adv-x="900" d="M199 -12l460 707l25 -18l-461 -705zM237 317q-78 0 -124.5 49.5t-46.5 132.5q0 82 47 131t126 49t124.5 -48.5t45.5 -134.5q0 -82 -46.5 -130.5t-125.5 -48.5zM238 336q48 0 74 41.5t26 118.5q0 164 -98 164q-49 0 -75 -42.5t-26 -119.5q0 -79 25.5 -120.5t73.5 -41.5z M474 182q0 82 47 131t126 49t124.5 -48.5t45.5 -134.5q0 -82 -46.5 -130.5t-125.5 -48.5q-78 0 -124.5 49.5t-46.5 132.5zM547 181q0 -79 25.5 -120.5t73.5 -41.5t74 41.5t26 118.5q0 164 -98 164q-49 0 -75 -42.5t-26 -119.5z" />
<glyph unicode="&#x26;" horiz-adv-x="838" d="M105 171q0 60 34.5 98.5t125.5 89.5q-46 55 -64 91.5t-18 77.5q0 68 50.5 110t131.5 42q74 0 120 -39.5t46 -102.5q0 -54 -31 -84t-100 -60l-33 -14q70 -79 105.5 -115.5t109.5 -105.5q43 84 43 146q0 3 -2 23h-69v23h85q46 0 83 1v-23h-69l-3 -19q-9 -60 -18 -87.5 t-33 -79.5l88 -82q23 -22 41 -29.5t49 -9.5v-23l-79 2q-30 0 -53 -1l-22 -1l-76 71q-46 -46 -90 -64.5t-109 -18.5q-107 0 -175 51.5t-68 132.5zM351 397q60 26 85.5 61t25.5 91q0 52 -25.5 82.5t-69.5 30.5t-69.5 -27.5t-25.5 -73.5q0 -41 15.5 -73.5t63.5 -90.5zM199 199 q0 -86 45.5 -139t119.5 -53q98 0 165 81q-47 40 -124 118.5t-125 134.5q-44 -21 -62.5 -53t-18.5 -89z" />
<glyph unicode="'" horiz-adv-x="196" d="M74 394l-17 274h81l-16 -274h-48z" />
<glyph unicode="(" horiz-adv-x="388" d="M190 -85q-43 65 -62 142.5t-19 188.5q0 195 68 312q28 48 58 79.5t93 79.5l12 -17q-37 -29 -55 -49.5t-32 -51.5q-23 -51 -32 -105q-17 -98 -17 -242q0 -259 54 -368q15 -30 31.5 -48.5t50.5 -42.5l-12 -16q-56 43 -83 70t-55 68z" />
<glyph unicode=")" horiz-adv-x="394" d="M168 0q17 96 17 242q0 258 -54 369q-15 29 -31.5 47.5t-50.5 42.5l12 16q56 -43 83 -70t55 -68q43 -65 62 -143t19 -188q0 -195 -68 -312q-28 -48 -58 -79.5t-93 -79.5l-12 18q37 28 55 48.5t32 52.5q23 49 32 104z" />
<glyph unicode="*" horiz-adv-x="445" d="M155 399q-14 0 -25 11t-11 22q0 19 29 38l22 14t12 8.5t6.5 5t5 6t7.5 9.5l10 12q-37 10 -48 10l-44 -3q-43 0 -43 29q0 16 9 27.5t22 11.5q18 0 37 -17l21 -19q14 -13 50 -26q-3 41 -8 55l-12 29q-5 12 -5 25q0 33 33 33t33 -32q0 -17 -5 -27l-12 -30q-7 -16 -8 -52 q36 15 51 28l19 17q16 14 36 14q13 0 22 -11.5t9 -27.5q0 -12 -13 -20.5t-32 -8.5l-29 2q-3 1 -11 1q-16 0 -48 -8q20 -30 43 -43l18 -11q29 -17 29 -40q0 -11 -11.5 -21.5t-22.5 -10.5q-27 0 -38 45q-7 30 -11 40t-20 32q-5 -11 -11.5 -21.5t-10 -17t-4.5 -12.5l-4 -25 q-3 -18 -13.5 -29.5t-23.5 -11.5z" />
<glyph unicode="+" d="M224 126v194h-204v49h204v195h51v-195h205v-49h-205v-194h-51z" />
<glyph unicode="," horiz-adv-x="320" d="M102 52q0 25 15 39.5t40 14.5q27 0 42.5 -18t15.5 -50q0 -50 -31 -93t-99 -87l-13 19q93 60 93 98q0 15 -24 24q-39 12 -39 53z" />
<glyph unicode="-" horiz-adv-x="217" d="M0 216v44h217v-44h-217z" />
<glyph unicode="." horiz-adv-x="320" d="M98 47q0 25 16.5 41t42.5 16t43 -15.5t17 -40.5t-17 -41.5t-43 -16.5t-42.5 16t-16.5 41z" />
<glyph unicode="/" horiz-adv-x="244" d="M-53 -80l320 801l31 -13l-318 -802z" />
<glyph unicode="0" horiz-adv-x="528" d="M263 -6q-108 0 -173 91.5t-65 243.5q0 163 62.5 253.5t175.5 90.5q112 0 175 -91t63 -252q0 -156 -64 -246t-174 -90zM153 106q13 -42 43 -66.5t67 -24.5q41 0 72 28.5t45 80.5q22 85 22 205q0 145 -28 232q-13 42 -43 66.5t-68 24.5q-137 0 -137 -307q0 -153 27 -239z " />
<glyph unicode="1" horiz-adv-x="529" d="M132 -1v22h97v597l-148 -81l-9 19l111 61q40 22 96 56h43v-651h82v-23q-116 2 -132 2t-140 -2z" />
<glyph unicode="2" horiz-adv-x="533" d="M42 1q0 74 37 132t141 144q69 57 99.5 93.5t38 62t7.5 72.5q0 70 -32 107.5t-93 37.5q-42 0 -70 -18.5t-28 -46.5q0 -11 5 -37t5 -32q0 -20 -15 -33t-37 -13q-25 0 -40 15.5t-15 41.5q0 63 58.5 104.5t148.5 41.5q97 0 153.5 -49.5t56.5 -133.5q0 -62 -29 -103t-123 -92 l-77.5 -43.5t-54.5 -37.5l-35.5 -30t-23.5 -32t-15 -32t-14 -41h264q54 0 73.5 17.5t20.5 64.5h22v-15q0 -9 -0.5 -27t-0.5 -27v-28q0 -27 1 -43l1 -21l-230 1q-17 0 -83 -1t-77 -1h-39v2z" />
<glyph unicode="3" horiz-adv-x="532" d="M40 121q0 57 57 57q50 0 50 -45q0 -14 -3 -30q-4 -17 -4 -30q0 -26 25 -42t65 -16q65 0 105.5 43t40.5 113q0 153 -189 161v22q86 4 131.5 45t45.5 116q0 62 -36 99t-95 37q-38 0 -61 -15t-23 -40q0 -14 6 -35q5 -22 5 -32q0 -20 -15 -32.5t-38 -12.5q-26 0 -40 14.5 t-14 40.5q0 60 52.5 97t137.5 37q100 0 158 -43.5t58 -117.5q0 -49 -28 -89t-73 -56q-36 -13 -112 -24q76 -9 115 -22q51 -17 81.5 -58.5t30.5 -93.5q0 -82 -64 -128.5t-175 -46.5q-89 0 -141.5 34t-52.5 93z" />
<glyph unicode="4" horiz-adv-x="527" d="M18 174v55l338 449h49v-440h102v-62h-102v-153h85v-23q-32 0 -74.5 0.5t-53.5 0.5q-17 0 -137 -2v22h90v153h-297zM51 237h264v347z" />
<glyph unicode="5" horiz-adv-x="531" d="M43 118q0 28 15 44.5t41 16.5q23 0 37.5 -12.5t14.5 -32.5q0 -10 -2.5 -31t-2.5 -25q0 -29 21.5 -45.5t59.5 -16.5q66 0 104.5 48t38.5 131q0 87 -41.5 135t-115.5 48q-51 0 -135 -23q2 29 6 70.5l8 85.5l12 155l203 -1q6 0 18 0.5t19 0.5l83 2v-156h-23q-5 46 -23 61.5 t-67 15.5h-192l-18 -203q69 14 125 14q109 0 174 -53.5t65 -143.5q0 -94 -66 -151.5t-173 -57.5q-83 0 -134.5 34.5t-51.5 89.5z" />
<glyph unicode="6" horiz-adv-x="531" d="M282 -6q-116 0 -180.5 82t-64.5 229q0 179 69.5 273.5t199.5 94.5q73 0 119.5 -36t46.5 -93q0 -58 -53 -58q-25 0 -40 13t-15 34q0 14 6 35q6 20 6 32q0 23 -19.5 37.5t-50.5 14.5q-86 0 -131.5 -84t-45.5 -242q0 -24 1 -48q13 42 28 63t44 38q44 26 99 26 q88 0 143 -54.5t55 -142.5q0 -97 -59.5 -155.5t-157.5 -58.5zM140 198q0 -82 36.5 -132t96.5 -50q58 0 93 46.5t35 123.5q0 87 -34 139.5t-91 52.5q-60 0 -98 -50.5t-38 -129.5z" />
<glyph unicode="7" horiz-adv-x="528" d="M136 0q35 101 112.5 252.5t171.5 303.5l19 32h-249q-65 0 -89 -18t-26 -67h-25q1 11 3 39t2 47v79l40 -1q44 -2 159 -2l227 3v-34q-126 -289 -231 -634h-114z" />
<glyph unicode="8" horiz-adv-x="528" d="M39 164q0 76 65 120q25 17 83 44q-49 27 -74 51q-51 51 -51 123q0 75 57 123t146 48q85 0 142 -45t57 -113q0 -88 -93 -133q-12 -6 -45 -20q59 -28 84 -45.5t45 -43.5q31 -42 31 -100q0 -79 -63.5 -129t-164.5 -50q-96 0 -157.5 47.5t-61.5 122.5zM305 373q50 32 72 66 t22 81q0 58 -35 94.5t-90 36.5q-54 0 -89 -34t-35 -86t34 -86.5t121 -71.5zM107 166q0 -66 42 -108.5t107 -42.5q61 0 102 36.5t41 89.5q0 84 -106 137l-82 40q-50 -23 -77 -62.5t-27 -89.5z" />
<glyph unicode="9" horiz-adv-x="531" d="M50 124q0 58 58 58q49 0 49 -46q0 -7 -2 -25q-6 -26 -6 -38q0 -27 21 -43t57 -16q78 0 122 78q28 48 38 105.5t10 162.5v33q-13 -42 -28.5 -63t-43.5 -37q-43 -23 -95 -23q-88 0 -142.5 55t-54.5 144q0 92 59 148t155 56q116 0 179.5 -81t63.5 -230q0 -177 -69 -272.5 t-197 -95.5q-75 0 -124.5 36.5t-49.5 93.5zM254 295q58 0 95 50t37 130q0 81 -34.5 129t-93.5 48q-60 0 -96.5 -49t-36.5 -130t35 -129.5t94 -48.5z" />
<glyph unicode=":" horiz-adv-x="320" d="M157 315q-26 0 -42.5 16t-16.5 41t16.5 41.5t42.5 16.5t43 -16t17 -41t-17 -41.5t-43 -16.5zM98 47q0 25 16.5 41t42.5 16t43 -15.5t17 -40.5t-17 -41.5t-43 -16.5t-42.5 16t-16.5 41z" />
<glyph unicode=";" horiz-adv-x="320" d="M157 315q-26 0 -42.5 16t-16.5 41t16.5 41.5t42.5 16.5t43 -16t17 -41t-17 -41.5t-43 -16.5zM102 52q0 25 15 39.5t40 14.5q27 0 42.5 -18t15.5 -50q0 -50 -31 -93t-99 -87l-13 19q93 60 93 98q0 15 -24 24q-39 12 -39 53z" />
<glyph unicode="&#x3c;" d="M42 345v7l416 265v-43l-300 -194l300 -201v-113z" />
<glyph unicode="=" d="M20 392v48h460v-48h-460zM20 249v48h460v-48h-460z" />
<glyph unicode="&#x3e;" d="M42 66v43l300 194l-300 200v114l416 -279v-7z" />
<glyph unicode="?" d="M225 157l1 17q0 65 4.5 93.5t17.5 51.5q13 24 44 59l28 33q27 31 38 58.5t11 64.5q0 59 -28.5 91t-81.5 32q-38 0 -60 -14.5t-22 -39.5q0 -13 4 -24q6 -30 6 -41q0 -57 -52 -57q-28 0 -44 15.5t-16 43.5q0 59 57 99.5t141 40.5q85 0 139.5 -44.5t54.5 -112.5 q0 -46 -22 -79t-75 -66l-28 -17q-51 -33 -72 -72t-21 -101v-31h-24zM179 47q0 25 16.5 41t42.5 16q27 0 43.5 -15.5t16.5 -40.5t-16.5 -41.5t-42.5 -16.5t-43 16t-17 41z" />
<glyph unicode="@" horiz-adv-x="994" d="M71 166q0 198 133.5 328t336.5 130q169 0 274 -93.5t105 -243.5q0 -123 -72.5 -210.5t-174.5 -87.5q-34 0 -64.5 12.5t-44.5 32.5q-9 14 -13 47q-55 -89 -138 -89q-55 0 -89.5 44t-34.5 114q0 113 64 195.5t152 82.5q22 0 83 -14q33 -7 47 -7q19 0 52 10l-54 -282 q-6 -30 -6 -53q0 -32 16 -50.5t45 -18.5q67 0 116 96q45 88 45 198q0 133 -85 213t-225 80q-173 0 -285 -126t-112 -322q0 -152 85.5 -243t228.5 -91q53 0 126 17v-26q-80 -16 -138 -16q-164 0 -268.5 104.5t-104.5 268.5zM365 125q-2 -46 16.5 -76.5t48.5 -30.5 q25 0 54.5 22t47.5 54q24 43 39.5 103.5t15.5 111.5q0 91 -66 96q-26 2 -53 -17.5t-45 -52.5q-53 -98 -58 -210z" />
<glyph unicode="A" horiz-adv-x="695" d="M13 -1v23h41q27 42 70 147l207 504h26l269 -652h53v-23q-73 3 -112 3q-15 0 -125 -2v23h80l-83 200h-266l-25 -61q-33 -82 -48 -140h60v-23q-50 3 -75 3q-8 0 -72 -2zM182 245h248l-123 308z" />
<glyph unicode="B" horiz-adv-x="612" d="M24 -1v23h84v623h-84v23q51 -3 85 -3q6 0 21.5 0.5t26.5 0.5h127q78 0 111 -5.5t69 -24.5q80 -42 80 -134q0 -137 -187 -160q205 -12 205 -167q0 -52 -28 -92t-78 -60q-35 -14 -72.5 -18.5t-112.5 -4.5h-126q-68 0 -121 -1zM204 354h74q81 0 123.5 38.5t42.5 112.5 q0 72 -42 109q-23 20 -46 25.5t-90 5.5h-62v-291zM204 21h77q178 0 178 161q0 76 -43 112.5t-133 36.5h-79v-310z" />
<glyph unicode="C" horiz-adv-x="669" d="M66 333q0 157 85.5 252t228.5 95q56 0 131 -15q36 -8 54 -10q12 -2 30 -2q-2 -53 -2 -106q0 -47 1 -83h-23q-5 44 -11.5 66t-21.5 47q-49 83 -151 83q-106 0 -161 -80.5t-55 -233.5q0 -336 221 -336q84 0 131.5 52t54.5 152h23q0 -21 -0.5 -50t-0.5 -37q0 -1 2 -111h-2 q-29 0 -87 -12q-80 -17 -138 -17q-143 0 -226 93t-83 253z" />
<glyph unicode="D" horiz-adv-x="739" d="M28 -1v23h83v623h-83v23q57 -3 185 -3h65q118 0 170.5 -11t101.5 -47q59 -42 91.5 -114.5t32.5 -160.5q0 -95 -38.5 -170.5t-106.5 -113.5q-52 -29 -104.5 -38.5t-160.5 -9.5h-181q-30 0 -55 -1zM207 21h69q166 0 230.5 76t64.5 234q0 165 -66 239.5t-213 74.5h-85v-624z " />
<glyph unicode="E" horiz-adv-x="610" d="M25 -1v23h83v623h-83v23l40 -1q5 0 31.5 -0.5t48.5 -0.5q19 0 45.5 -0.5t33.5 -0.5h121l199 3v-170h-22q-6 84 -49 117q-39 30 -136 30h-131v-290h64q88 -1 118.5 21t31.5 88h22l-1 -118l2 -124h-22q-5 69 -33 89t-119 20h-63v-310h137q103 0 146.5 36.5t45.5 124.5h24 v-153l1 -30l-199 2h-136q-8 0 -34.5 -0.5t-45.5 -0.5q-65 0 -80 -1h-40z" />
<glyph unicode="F" horiz-adv-x="563" d="M30 -1v23h83v623h-83v23l40 -1q5 0 31.5 -0.5t48.5 -0.5q34 -1 79 -1h104l200 3q-2 -39 -2 -72l2 -105h-23v6q-1 77 -41 112.5t-126 35.5h-133v-300h66q76 -1 104 22.5t30 88.5h23q-1 -49 -1 -126q0 -68 2 -120h-23q-4 65 -31.5 88.5t-103.5 23.5h-66v-300h94v-23 q-122 2 -136 2q-16 0 -138 -2z" />
<glyph unicode="G" horiz-adv-x="722" d="M147 85q-83 89 -83 248t89.5 253t241.5 94q51 0 114 -14q45 -10 47 -10q12 -3 37 -5q5 -1 22 -1l-1 -28q0 -15 -0.5 -36.5t-0.5 -28.5q0 -6 0.5 -27t0.5 -37l1 -33h-22q-6 68 -28 108q-48 90 -166 90q-112 0 -170.5 -82.5t-58.5 -239.5q0 -158 58 -243t166 -85 q70 0 145 39v204h-82v23q43 -1 108 -1q94 0 142 2v-23h-73v-235q-47 -2 -87 -9l-60 -10q-60 -11 -103 -11q-68 0 -132.5 26.5t-104.5 71.5z" />
<glyph unicode="H" horiz-adv-x="722" d="M26 -1v23h84v623h-84v23q116 -4 131 -4q14 0 132 4v-23h-83v-293h306v293h-83v23q114 -4 129 -4q14 0 132 4v-23h-83v-623h83v-23q-114 2 -129 2t-133 -2v23h83v306h-306v-306h83v-23q-112 2 -128 2q-14 0 -134 -2z" />
<glyph unicode="I" horiz-adv-x="313" d="M26 -1v23h84v623h-84v23q116 -4 131 -4q14 0 132 4v-23h-84v-623h83v-23q-112 2 -128 2q-14 0 -134 -2z" />
<glyph unicode="J" horiz-adv-x="445" d="M27 5q1 41 1 84q0 42 -1 72v24h23q9 -72 30 -112q15 -30 38.5 -47.5t49.5 -17.5q78 0 86 108q3 40 3 83v446h-96v23q20 0 61 -1.5t57 -1.5h19q44 0 133 3v-23h-79v-427q0 -113 -32 -161q-45 -70 -137 -70q-28 0 -99 12z" />
<glyph unicode="K" horiz-adv-x="726" d="M26 -1v23h85v623h-85v23q116 -4 131 -4q14 0 132 4v-23h-84v-290l241 215l58 60l12 15h-70v23q90 -4 103 -4q11 0 97 4v-23h-72q-25 -14 -66 -50l-219 -200l348 -374h75v-23q-94 3 -143 3q-15 0 -141 -2v23h80l-303 323v-323h84v-23q-114 2 -129 2q-14 0 -134 -2z" />
<glyph unicode="L" horiz-adv-x="556" d="M29 -1v23h80v623h-86v23q124 -4 139 -4q16 0 136 4v-23h-92v-623h139q89 0 129 37t44 125h22l-2 -113q0 -17 3 -72l-313 2q-117 0 -159 -2h-40z" />
<glyph unicode="M" horiz-adv-x="890" d="M24 -1v23h71q12 74 12 140v483h-83v23q88 -4 101 -4q11 0 91 4l226 -550l222 550q53 -4 81 -4q46 0 106 4v-23h-83l8 -624h83v-23q-84 3 -128 3q-16 0 -134 -2v23h84l-5 614l-256 -637h-29l-259 637v-474q0 -77 8 -141h76v-23q-64 3 -96 3q-12 0 -96 -2z" />
<glyph unicode="N" horiz-adv-x="723" d="M23 -1v23h77q7 66 7 139v484h-84v23l57.5 -2.5t46.5 -1.5q31 0 91 4l370 -521v356q0 69 -11 142h-75v23q86 -4 97 -4t97 4v-23h-75q-8 -64 -8 -142v-510l-36 1l-444 632v-464q0 -80 13 -141h72v-23q-64 3 -97 3q-12 0 -98 -2z" />
<glyph unicode="O" horiz-adv-x="753" d="M62 332q0 159 86.5 255t229.5 96q137 0 223 -96.5t86 -251.5q0 -161 -85.5 -256t-230.5 -95q-141 0 -225 94t-84 254zM207 109q25 -50 68.5 -77t97.5 -27q102 0 155.5 84t53.5 245q0 160 -52.5 244t-153.5 84q-53 0 -96.5 -26.5t-68.5 -74.5q-44 -83 -44 -226 q0 -147 40 -226z" />
<glyph unicode="P" horiz-adv-x="584" d="M23 -1v23h83v623h-83v23q53 -2 129 -2h126q82 0 125.5 -9t76.5 -32q66 -47 66 -134q0 -113 -91 -157q-71 -34 -200 -34h-54v-278h98v-23q-122 2 -138 2q-14 0 -138 -2zM201 322h51q99 0 141 34q51 40 51 131q0 158 -150 158h-93v-323z" />
<glyph unicode="Q" horiz-adv-x="751" d="M63 332q0 160 85.5 255.5t227.5 95.5q139 0 224 -96t85 -254q0 -167 -90 -262q-33 -35 -63 -51t-88 -31l88 -140q11 -15 20 -23q15 -11 52 -11h35v-21h-100q-44 0 -68.5 15.5t-53.5 60.5l-72 114q-134 12 -208.5 103.5t-73.5 244.5zM167 331q0 -161 52.5 -244t154.5 -83 q101 0 154 84t53 245v13q-2 155 -55 234.5t-153 79.5t-153 -84.5t-53 -244.5z" />
<glyph unicode="R" horiz-adv-x="651" d="M24 -1v23h83v623h-83v23q68 -2 86 -2h176q75 0 117.5 -9.5t74.5 -33.5q64 -47 64 -128q0 -99 -83 -140q-42 -19 -105 -27q63 0 94 -8.5t53 -32.5q21 -23 30 -52.5t16 -105.5q7 -72 19 -89.5t53 -18.5h15v-23q-50 3 -75 3q-9 0 -81 -2q-20 35 -24 93l-5 71q-9 113 -62 138 q-30 13 -104 13h-81v-293h86v-23q-87 3 -130 3q-14 0 -134 -2zM201 338h86q74 0 114.5 40.5t40.5 114.5q0 82 -47 121q-40 31 -119 31h-75v-307z" />
<glyph unicode="S" horiz-adv-x="557" d="M61 18q0 19 0.5 41t1 35t0.5 24q0 7 -0.5 34.5t-0.5 47.5h24q5 -92 51 -143t127 -51q64 0 106 37t42 94q0 54 -41 97q-25 25 -89 53l-62 26q-80 34 -113 67q-50 52 -50 119q0 80 61 130.5t159 50.5q49 0 125 -17q31 -8 40 -9q3 -1 11 -1.5t12 -0.5v-69q0 -52 2 -104h-24 q-5 87 -48 134t-117 47q-60 0 -97.5 -34t-37.5 -88q0 -46 27 -76t94 -59l64 -28q74 -32 106 -60q62 -56 62 -134q0 -85 -64 -139.5t-165 -54.5q-51 0 -131 18q-45 10 -75 13z" />
<glyph unicode="T" horiz-adv-x="612" d="M175 -1v23h81v623h-33q-82 0 -120 -19t-55 -69q-10 -29 -12 -73h-23q1 41 1 93q0 50 -2 91l40 -1q5 0 31.5 -0.5t48.5 -0.5q35 -1 79 -1h184l200 3q-2 -41 -2 -92t2 -92h-23q-3 87 -44.5 124t-135.5 37h-40v-623h84v-23q-114 2 -128 2q-15 0 -133 -2z" />
<glyph unicode="U" horiz-adv-x="696" d="M132 92q-34 61 -34 175v378h-83v23l72.5 -2.5t56.5 -1.5q14 0 132 4v-23h-81v-398q0 -103 28 -156q20 -37 60.5 -58.5t89.5 -21.5t92.5 20.5t68.5 55.5q39 53 39 169v255q0 80 -9 134h-74v23q88 -4 99 -4t91 4v-23h-67q-11 -53 -11 -134v-255q0 -68 -10.5 -109.5 t-35.5 -74.5q-64 -85 -200 -85q-78 0 -137 27.5t-87 77.5z" />
<glyph unicode="V" horiz-adv-x="678" d="M322 -6l-258 651h-53v23q102 -4 115 -4q15 0 125 4v-23h-82l203 -527l150 392q27 73 43 135h-78v23q78 -4 87 -4t87 4v-23h-47q-32 -56 -65 -141l-197 -510h-30z" />
<glyph unicode="W" horiz-adv-x="1036" d="M292 -6l-227 651h-53v23q96 -4 110 -4q15 0 121 4v-23h-76l178 -515l189 543h34l193 -543l126 378q24 70 38 137h-77v23q76 -4 88 -4q10 0 86 4v-23h-48q-32 -59 -62 -144l-172 -507h-31l-194 551l-189 -551h-34z" />
<glyph unicode="X" horiz-adv-x="691" d="M17 -1v23h55l13 13q1 2 20 24l23 29l173 238l-213 319h-57v23q112 -4 127 -4q14 0 130 4v-23h-83l168 -254l152 213q13 19 24 41h-75v23q78 -4 88 -4t86 4v-23h-49q-30 -30 -68 -82l-142 -196l233 -346h55v-23q-84 3 -125 3q-15 0 -131 -2v23h83l-188 281l-146 -201 q-32 -44 -51 -81h73v-23q-58 3 -88 3q-11 0 -87 -2z" />
<glyph unicode="Y" horiz-adv-x="645" d="M193 -1v23h83v256l-212 367h-54v23q112 -4 126 -4q15 0 129 4v-23h-89l186 -326l126 229q34 60 46 97h-77v23q78 -4 87 -4q10 0 86 4v-23h-48q-44 -59 -72 -111l-139 -256v-256h86v-23q-114 2 -130 2q-14 0 -134 -2z" />
<glyph unicode="Z" horiz-adv-x="586" d="M28 -1v23l394 623h-165q-80 0 -117 -16t-57 -60q-13 -28 -16 -75h-23q1 42 1 99q0 43 -1 75l39 -1q5 0 32 -0.5t48 -0.5q20 0 46 -0.5t33 -0.5h101l199 3v-15l-394 -632h193q68 0 104.5 15t57.5 52q13 21 17 39t6 54h24l-1 -28q-1 -37 -1 -86q0 -37 2 -68l-199 2h-124 q-7 0 -33.5 -0.5t-45.5 -0.5q-64 0 -80 -1h-40z" />
<glyph unicode="[" horiz-adv-x="389" d="M157 -212v919q36 -3 69 -3l109 2v-23l-91 -1v-871h91v-24l-89 3z" />
<glyph unicode="\" horiz-adv-x="244" d="M265 -94l-319 802l32 13l320 -801z" />
<glyph unicode="]" horiz-adv-x="385" d="M53 -189h92v871h-91v24l88 -2l90 2v-919q-37 3 -69 3l-110 -2v23z" />
<glyph unicode="^" d="M20 380l192 288h76l192 -288h-73l-158 230l-156 -230h-73z" />
<glyph unicode="_" d="M0 -89h500v-49h-500v49z" />
<glyph unicode="`" horiz-adv-x="263" d="M198 479l-100 99q-32 32 -40 43t-8 22q0 25 38 25q54 0 86 -83l38 -94z" />
<glyph unicode="a" horiz-adv-x="498" d="M51 109q0 72 64.5 104.5t217.5 38.5v44q0 62 -22 88t-74 26q-77 0 -77 -44q0 -10 1 -16v-14q0 -53 -44 -53t-44 39q0 50 45 79t123 29q81 0 131 -39q24 -19 33.5 -43.5t9.5 -68.5v-260h63v-20q-64 2 -73 2q-8 0 -72 -2v33q0 1 0.5 5.5t1 13.5t0.5 18q0 3 0.5 13.5 t0.5 18.5q-22 -59 -56.5 -85t-91.5 -26q-63 0 -100 32t-37 87zM136 111q0 -46 20 -71.5t57 -25.5t68 27.5t42 70.5q10 43 10 109v10q-76 -1 -113.5 -11t-59.5 -33q-24 -27 -24 -76z" />
<glyph unicode="b" horiz-adv-x="543" d="M16 -1v20h67v630h-67v20q55 -5 75 -5q9 0 75 4v-325l-1 -31q21 61 57 89.5t92 28.5q80 0 129 -59.5t49 -156.5q0 -103 -48.5 -163.5t-131.5 -60.5q-68 0 -107 45q-27 32 -39 92v-129q-51 3 -76 3q-8 0 -74 -2zM167 215q0 -92 36 -148t97 -56q54 0 77.5 46.5t23.5 154.5 v13q-1 97 -25.5 140t-77.5 43q-59 0 -95 -53.5t-36 -139.5z" />
<glyph unicode="c" horiz-adv-x="453" d="M171 58q33 -48 93 -48q97 0 133 103l20 -6q-34 -117 -169 -117q-91 0 -146.5 60t-55.5 158q0 102 58.5 162t157.5 60q71 0 114 -27t43 -71q0 -22 -12.5 -34t-34.5 -12q-44 0 -44 40q0 10 1 17t1 19q0 23 -19 36.5t-50 13.5q-64 0 -93 -48t-29 -155q0 -106 32 -151z" />
<glyph unicode="d" horiz-adv-x="557" d="M56 211q0 98 49.5 158.5t131.5 60.5q70 0 111 -49q22 -26 39 -76l-1 65v277h-69v20q14 0 39.5 -1.5t34.5 -1.5t75 4v-650h66v-20q-48 3 -73 3q-9 0 -73 -2v93l1 31q-13 -49 -26 -69q-40 -64 -123 -64q-82 0 -132 60.5t-50 160.5zM252 12q59 0 94.5 51t35.5 137 q0 95 -35.5 151t-95.5 56q-102 0 -102 -192q0 -107 24 -155t79 -48z" />
<glyph unicode="e" d="M51 207q0 103 54.5 163t147.5 60q92 0 142 -55.5t52 -160.5h-306q0 -204 134 -204q51 0 88.5 28.5t56.5 80.5l20 -6q-44 -123 -178 -123q-95 0 -153 60t-58 157zM141 234h215q-3 94 -23 134q-21 43 -76 43q-56 0 -82.5 -40.5t-33.5 -136.5z" />
<glyph unicode="f" horiz-adv-x="304" d="M23 -1v20h67l1 381h-81v20h81v83q0 173 161 173q56 0 88.5 -22.5t32.5 -62.5q0 -46 -48 -46q-42 0 -42 41q0 11 1 17v14q0 40 -40 40q-37 0 -54 -31t-17 -99l1 -107h105v-20h-105v-381h97v-20q-114 2 -128 2t-120 -2z" />
<glyph unicode="g" horiz-adv-x="475" d="M88 46q0 30 17.5 49.5t58.5 34.5q-94 47 -94 144q0 69 46.5 112.5t120.5 43.5q33 0 73 -13h150l-1 -28h-100q52 -49 52 -118q0 -68 -48 -111t-125 -43q-25 0 -51 7q-47 -17 -47 -43q0 -20 20 -29t73 -13l69 -4q81 -5 116 -31t35 -82q0 -70 -59.5 -110.5t-163.5 -40.5 q-91 0 -142 31.5t-51 86.5q0 64 79 102q-28 21 -28 55zM240 136q86 0 90 122q6 152 -89 152q-90 0 -90 -138q0 -136 89 -136zM129 -18q-39 -36 -39 -84q0 -49 41.5 -77t112.5 -28q77 0 124.5 28t47.5 74q0 56 -88 62l-110 8q-56 4 -89 17z" />
<glyph unicode="h" horiz-adv-x="548" d="M22 -1v20h66v630h-66v20q55 -5 74 -5q8 0 76 4v-260l-1 -114q10 49 33 77q45 59 121 59q67 0 103 -41t36 -115v-256h66v-20q-70 3 -107 3q-12 0 -108 -2v20h66v275q0 59 -18 86t-58 27q-33 0 -62.5 -22t-44.5 -57q-26 -65 -26 -177v-133h67v-20q-72 3 -108 3 q-13 0 -109 -2z" />
<glyph unicode="i" horiz-adv-x="263" d="M137 569q-26 0 -42 14t-16 38q0 50 57 50q26 0 41.5 -13.5t15.5 -36.5q0 -25 -15 -38.5t-41 -13.5zM28 -1v20h66v383h-66v20q44 -4 74 -4q25 0 76 3v-403h65v-20q-71 3 -107 3q-12 0 -108 -2z" />
<glyph unicode="j" horiz-adv-x="267" d="M141 569q-26 0 -41.5 14t-15.5 38q0 50 57 50q26 0 41.5 -13.5t15.5 -36.5q0 -25 -15 -38.5t-42 -13.5zM-28 -111q45 0 45 -52v-7l-3 -26v-1q0 -27 30 -27q57 0 57 101v525h-78v20q48 -4 81 -4q26 0 79 3v-473q0 -57 -5.5 -84t-21.5 -50q-39 -54 -122 -54q-50 0 -78.5 22 t-28.5 59q0 48 45 48z" />
<glyph unicode="k" horiz-adv-x="529" d="M21 -1v20h67v630h-67v20q55 -5 75 -5q7 0 75 4v-425l143 107q21 15 51 51h-51v20q52 -3 80 -3q26 0 78 3v-20h-48l-29 -20l-151 -110l220 -253h50v-20q-74 3 -110 3q-13 0 -109 -2v20h58l-182 216v-216h68v-20q-96 2 -109 2q-11 0 -109 -2z" />
<glyph unicode="l" horiz-adv-x="260" d="M21 -1v20h67v630h-67v20q55 -5 75 -5q9 0 75 4v-650h65v-20q-70 3 -107 3q-12 0 -108 -2z" />
<glyph unicode="m" horiz-adv-x="837" d="M27 -1v20h66v383h-66v20q43 -4 71 -4q26 0 74 3v-121q9 32 17.5 48.5t23.5 32.5q46 49 115 49q116 0 134 -122q15 55 47 83q44 39 105 39q64 0 100 -38.5t36 -107.5v-266h66v-20q-72 3 -107 3q-13 0 -109 -2v20h65v266q0 65 -16.5 93.5t-55.5 28.5q-27 0 -52 -15.5 t-41 -41.5q-38 -64 -38 -197v-135h66v-20q-69 3 -106 3q-12 0 -108 -2v20h65v250q0 76 -16.5 106.5t-57.5 30.5q-30 0 -57 -19t-42 -51q-28 -57 -28 -169v-149h65v-20q-71 3 -107 3q-13 0 -109 -2z" />
<glyph unicode="n" horiz-adv-x="556" d="M25 -1v20h66v383h-66v20q43 -4 71 -4q26 0 75 3v-136q7 40 17 60.5t30 40.5q44 44 111 44q78 0 112 -50q16 -22 21.5 -45.5t5.5 -66.5v-250h67v-20q-72 3 -109 3q-11 0 -109 -2v20h65v250q0 74 -16.5 103.5t-57.5 29.5q-132 0 -132 -251v-133h67v-20q-72 3 -109 3 q-13 0 -109 -2z" />
<glyph unicode="o" horiz-adv-x="528" d="M53 205q0 105 57.5 166.5t157.5 61.5q96 0 152.5 -61t56.5 -164t-57.5 -162t-156.5 -59q-95 0 -152.5 59.5t-57.5 158.5zM144 207q0 -205 118 -205q124 0 124 208q0 105 -29 154.5t-91 49.5q-122 0 -122 -207z" />
<glyph unicode="p" horiz-adv-x="547" d="M169 98v-306h76v-20q-98 4 -112 4q-12 0 -114 -4v20h67v610h-67v20q44 -4 75 -4q26 0 75 3q-1 -40 -5 -112q16 54 48 82q42 39 102 39q82 0 130.5 -58.5t48.5 -157.5q0 -100 -49.5 -162t-128.5 -62q-107 0 -146 108zM169 215q0 -93 36.5 -150t96.5 -57q52 0 75.5 46 t23.5 146v15q-2 102 -25.5 146.5t-74.5 44.5q-59 0 -95.5 -52.5t-36.5 -138.5z" />
<glyph unicode="q" horiz-adv-x="544" d="M51 206q0 102 49.5 163t131.5 61q63 0 104 -43q31 -32 46 -96q-1 19 -1 43v86q62 -2 71 -2q24 0 73 3v-20h-65v-609h65v-20q-67 4 -113 4q-12 0 -114 -4v20h83v319q-11 -36 -21 -54t-29 -34q-39 -33 -96 -33q-83 0 -133.5 59.5t-50.5 156.5zM243 9q61 0 97 55t36 147 q0 87 -35.5 140.5t-93.5 53.5q-105 0 -105 -202q0 -194 101 -194z" />
<glyph unicode="r" horiz-adv-x="417" d="M27 -1v20h67v383h-67v20q44 -4 74 -4q25 0 76 3q-1 -96 -1 -126q27 126 134 126q92 0 92 -79q0 -29 -10.5 -42t-34.5 -13q-45 0 -45 41q0 15 2 25q1 5 1 15q0 28 -28 28q-24 0 -47 -17t-36 -44q-27 -57 -27 -176v-140h91v-20q-110 2 -124 2q-13 0 -117 -2z" />
<glyph unicode="s" horiz-adv-x="417" d="M55 9l2 64l-1 66h20q4 -64 38 -97.5t93 -33.5q46 0 74 21.5t28 57.5q0 28 -18 45.5t-59 30.5l-52 15q-68 19 -96.5 48t-28.5 77q0 56 43 91.5t112 35.5q22 0 74 -10q31 -7 64 -8q-2 -28 -2 -71q0 -31 2 -53h-20q-7 124 -123 124q-42 0 -68 -20t-26 -52q0 -54 78 -76 l69 -21q111 -32 111 -120q0 -61 -43.5 -97t-117.5 -36q-27 0 -55 5l-43 7q-29 5 -55 7z" />
<glyph unicode="t" horiz-adv-x="336" d="M88 118v281h-74v20q58 1 96 42q19 20 28 42t15 65h18v-148h127v-20h-127v-295q0 -50 11.5 -72t36.5 -22q60 0 79 93h18q-6 -55 -36 -84.5t-80 -29.5q-112 0 -112 128z" />
<glyph unicode="u" horiz-adv-x="526" d="M100 47q-14 23 -18.5 46t-4.5 72v236h-65v20q15 0 40 -1.5t33 -1.5q26 0 75 3v-287q0 -120 76 -120q30 0 59 21.5t43 53.5q22 53 22 149v163h-65v20q48 -3 74 -3q25 0 75 3v-403h68v-20q-51 3 -76 3q-8 0 -70 -2v54v3q0 4 0.5 10t0.5 13v42q-14 -53 -37 -80 q-43 -51 -116 -51q-78 0 -114 57z" />
<glyph unicode="v" horiz-adv-x="479" d="M221 -6l-165 407h-44v20q66 -3 100 -3t102 3v-20h-65l119 -304l71 180q26 65 41 124h-58v20q46 -3 71 -3t71 3v-20h-42q-24 -38 -38 -74l-23 -59l-111 -274h-29z" />
<glyph unicode="w" horiz-adv-x="740" d="M211 -6l-157 407h-43v20q65 -3 97 -3q34 0 103 3v-20h-65l115 -300l121 320h35l124 -320l76 209q20 56 24 91h-57v20q46 -3 70 -3q23 0 71 3v-20h-41q-22 -35 -55 -123l-104 -284h-31l-127 326l-122 -326h-34z" />
<glyph unicode="x" horiz-adv-x="492" d="M11 -1v20h47q31 30 73 84l75 96l-141 202h-44v20q70 -3 105 -3q36 0 108 3v-20h-64l99 -145l57 74q27 35 44 71h-54v20q46 -3 71 -3t73 3v-20h-45q-26 -26 -46 -51l-87 -113l151 -219h46v-20q-67 3 -104 3q-12 0 -114 -2v20h70l-112 162l-61 -83q-33 -44 -54 -80h53v-20 q-48 3 -73 3q-7 0 -73 -2z" />
<glyph unicode="y" horiz-adv-x="482" d="M70 -140q12 0 29 -5l28 -9q4 -2 13 -2q20 0 31 13t27 53l34 89l-176 402h-43v20q72 -3 109 -3q24 0 93 3v-20h-67l128 -299l78 197q25 63 28 82l4 20h-51v20q42 -3 65 -3q24 0 70 3v-20h-42q-16 -23 -19 -30l-194 -469q-29 -71 -58 -100t-72 -29q-54 0 -54 44q0 43 39 43 z" />
<glyph unicode="z" horiz-adv-x="419" d="M19 -1v13l256 385h-87q-71 0 -98.5 -23.5t-29.5 -84.5h-21l1 68q0 21 -1 37q0 15 -1 27h40q22 0 48.5 -1t31.5 -1q24 -1 46 -1h13q24 0 50 1q6 0 32 1t46 1h38v-15l-256 -386h113q68 0 93 23t29 88h20v-22q-1 -25 -1 -55t2 -55h-38q-20 0 -46 0.5t-32 0.5q-26 1 -50 1 h-32q-22 0 -46 -1q-5 0 -31.5 -0.5t-48.5 -0.5h-40z" />
<glyph unicode="{" d="M196 27q0 4 0.5 22.5t0.5 30.5v27q0 31 0.5 41.5t1 24.5t0.5 45q0 46 -20.5 64t-74.5 21v16q53 3 74 21t21 59q0 12 -0.5 26t-0.5 23q-1 32 -1 69q0 86 10.5 123t40.5 56q25 16 66 17h18q21 0 51 1q8 0 18 1v-23q-54 -2 -79.5 -12.5t-37.5 -36.5q-13 -26 -13 -78v-95 q0 -77 -6 -95q-15 -50 -75 -62v-4q40 -7 60 -34q14 -19 17.5 -40t3.5 -92v-67q0 -81 5 -103q9 -40 36.5 -55.5t88.5 -15.5v-23h-5q-55 0 -87 2q-61 5 -87 38.5t-26 107.5z" />
<glyph unicode="|" d="M218 -173v839h63v-839h-63z" />
<glyph unicode="}" d="M99 -98q61 0 88 15.5t36 55.5q5 24 5 61v65q0 33 0.5 44t0.5 17v35q0 100 81 114v4q-61 12 -76 62q-5 16 -5 55v40q0 45 -1 112q-1 61 -29 84.5t-100 25.5v23q18 -1 59 -1q51 -1 74.5 -9t40.5 -29q17 -22 23.5 -54t6.5 -97q0 -35 -1 -71q0 -9 -0.5 -25.5t-0.5 -26.5 q0 -44 21 -62t74 -21v-16q-53 -3 -74.5 -21t-20.5 -61l3 -194q1 -123 -84 -142q-20 -4 -75 -5q-41 -1 -46 -1v23z" />
<glyph unicode="~" horiz-adv-x="667" d="M142 611l-16 10q58 100 137 100q27 0 88 -21q53 -19 78 -19q53 0 96 53l16 -10q-24 -44 -61.5 -71.5t-73.5 -27.5q-20 0 -90 23q-58 19 -86 19q-26 0 -41.5 -10t-46.5 -46z" />
<glyph unicode="&#xa1;" horiz-adv-x="263" d="M112 566q-26 0 -42.5 15.5t-16.5 40.5q0 26 16.5 42t42.5 16t42.5 -16t16.5 -41t-16.5 -41t-42.5 -16zM60 51q0 56 18 186q2 13 6.5 45.5l5.5 40l4 30t3.5 29.5t2 24.5t1.5 29t0.5 27.5t0.5 35v14h21q1 -81 13 -171l13 -99l11.5 -79l7.5 -51t3.5 -30t1.5 -35 q0 -27 -15 -42t-42 -15q-56 0 -56 61z" />
<glyph unicode="&#xa2;" horiz-adv-x="518" d="M272 33v120q-95 8 -144.5 63.5t-49.5 155.5q0 119 74 180q26 22 50.5 31t69.5 14v108h26v-107q161 -9 161 -96q0 -22 -13.5 -36t-34.5 -14q-19 0 -31.5 11t-12.5 28q0 4 2 20q2 12 2 16q0 45 -72 48v-398q55 1 86 24.5t52 79.5l21 -6q-21 -59 -56 -87q-36 -29 -103 -35 v-120h-27zM272 180v395q-50 -6 -71 -41q-31 -55 -31 -167q0 -91 23.5 -134.5t78.5 -52.5z" />
<glyph unicode="&#xa3;" horiz-adv-x="670" d="M60 -1v21q58 0 81.5 48.5t23.5 165.5v105h-105v24h105v35q0 137 60.5 209.5t173.5 72.5q74 0 117.5 -35t43.5 -96q0 -60 -55 -60q-56 0 -56 48q0 8 6.5 35.5t6.5 35.5q0 22 -20.5 35.5t-53.5 13.5q-68 0 -98 -44t-30 -147v-102h147v-24h-147q-7 -113 -23.5 -161 t-65.5 -101h259q64 0 84.5 15.5t24.5 67.5h24q-3 -61 -3 -83q0 -24 3 -79l-304 2q-17 0 -83 -1t-77 -1h-39z" />
<glyph unicode="&#xa4;" horiz-adv-x="667" d="M92 66l-34 34l92 92q-29 44 -40 75t-11 70q0 68 49 155l-92 92l33 34l93 -93q70 51 151 51q39 0 71 -11t79 -41l95 94l33 -33l-95 -95q29 -47 39 -78.5t10 -72.5q0 -38 -10.5 -67.5t-39.5 -75.5l95 -96l-33 -33l-94 94q-81 -52 -150 -52q-40 0 -72 11t-76 39zM334 177 q68 0 116 48.5t48 116.5q0 69 -48 117.5t-116 48.5q-69 0 -117.5 -48.5t-48.5 -117.5q0 -68 48.5 -116.5t117.5 -48.5z" />
<glyph unicode="&#xa5;" horiz-adv-x="645" d="M193 -1v23h84v231h-154v26h154l-77 134h-142v26h125l-117 206h-55v23q110 -4 125 -4t129 4v-23h-89l187 -325l126 228q18 32 46 97h-77v23q76 -4 86 -4t86 4v-23h-48q-45 -61 -72 -110l-53 -96h118v-26h-132l-72 -134h152v-26h-152v-231h86v-23q-116 2 -130 2 q-16 0 -134 -2z" />
<glyph unicode="&#xa6;" d="M219 328v339h63v-339h-63zM219 153h63v-320h-63v320z" />
<glyph unicode="&#xa7;" horiz-adv-x="560" d="M90 -112q0 25 15 40t41 15q53 0 53 -51q0 -7 -2 -21q-4 -20 -4 -31q0 -23 20.5 -36.5t55.5 -13.5q50 0 81 26.5t31 69.5q0 53 -67 103l-133 99q-41 30 -58 47t-32 40q-20 32 -20 71q0 45 24.5 79.5t78.5 65.5q-37 30 -52.5 59t-15.5 69q0 72 52.5 116.5t137.5 44.5 q73 0 120 -34t47 -86q0 -26 -14.5 -41.5t-38.5 -15.5q-25 0 -40.5 15t-15.5 39q0 13 3 25q4 17 4 29q0 21 -20.5 33.5t-54.5 12.5q-47 0 -77 -27t-30 -70q0 -33 15 -56.5t58 -55.5l140 -105q50 -37 70.5 -70t20.5 -74q0 -43 -21.5 -75.5t-76.5 -70.5q39 -32 55 -60t16 -67 q0 -71 -53.5 -115t-141.5 -44q-76 0 -123.5 33.5t-47.5 87.5zM206 187l161 -120q33 21 46.5 40t13.5 45q0 47 -54 88l-180 135q-37 -17 -52 -36t-15 -46q0 -26 18 -49.5t62 -56.5z" />
<glyph unicode="&#xa8;" horiz-adv-x="263" d="M230 529q-22 0 -36.5 14.5t-14.5 36.5t14.5 36t37.5 14t37 -14t14 -37q0 -22 -14.5 -36t-37.5 -14zM33 529q-22 0 -36.5 14.5t-14.5 36.5t14.5 36t37.5 14t37 -14t14 -37q0 -22 -14.5 -36t-37.5 -14z" />
<glyph unicode="&#xa9;" horiz-adv-x="804" d="M55 334q0 143 101.5 244.5t244.5 101.5q144 0 245.5 -101.5t101.5 -244.5q0 -144 -101.5 -245.5t-245.5 -101.5q-143 0 -244.5 101.5t-101.5 245.5zM89 334q0 -130 91.5 -221.5t220.5 -91.5q130 0 221.5 91.5t91.5 221.5q0 129 -91.5 220.5t-221.5 91.5 q-129 0 -220.5 -91.5t-91.5 -220.5zM221 327q0 85 52.5 139.5t135.5 54.5q39 0 80 -18q15 -6 22 -6q11 0 19 19q0 2 2 6l17 2v-117h-17q-12 43 -42 66.5t-73 23.5q-53 0 -86.5 -45t-33.5 -118q0 -77 32.5 -119.5t92.5 -42.5q79 0 133 86v-38q-54 -74 -145 -74 q-84 0 -136.5 50.5t-52.5 130.5z" />
<glyph unicode="&#xaa;" horiz-adv-x="322" d="M97 395q-27 0 -44.5 16.5t-17.5 41.5q0 70 169 110v44q0 48 -53 48q-23 0 -41 -8.5t-19 -18.5q0 -3 3 -9q8 -10 8 -23q0 -11 -8.5 -19t-20.5 -8t-20.5 9.5t-8.5 22.5q0 28 33.5 50t77.5 22q52 0 75.5 -19t23.5 -60v-135q0 -25 3 -33t12 -8q11 0 26 25l11 -7 q-23 -41 -56 -41q-22 0 -31.5 11t-14.5 39q-61 -50 -107 -50zM124 423q36 0 80 43v78q-54 -12 -85.5 -35t-31.5 -49q0 -16 10.5 -26.5t26.5 -10.5zM30 302v31h283v-31h-283z" />
<glyph unicode="&#xab;" horiz-adv-x="461" d="M229 211l167 205l17 -9l-89 -196l89 -201l-17 -9zM54 211l167 205l16 -9l-88 -196l88 -201l-16 -9z" />
<glyph unicode="&#xac;" d="M34 220v47h431v-267h-108v220h-323z" />
<glyph unicode="&#xad;" horiz-adv-x="217" d="M0 216v44h217v-44h-217z" />
<glyph unicode="&#xae;" horiz-adv-x="804" d="M55 334q0 143 101.5 244.5t244.5 101.5q144 0 245.5 -101.5t101.5 -244.5q0 -144 -101.5 -245.5t-245.5 -101.5q-143 0 -244.5 101.5t-101.5 245.5zM89 334q0 -130 91.5 -221.5t220.5 -91.5q130 0 221.5 91.5t91.5 221.5q0 129 -91.5 220.5t-221.5 91.5 q-129 0 -220.5 -91.5t-91.5 -220.5zM237 151v18h15q20 0 26.5 7.5t6.5 30.5v253q0 23 -6.5 30.5t-26.5 7.5h-18v18h169q148 0 148 -100q0 -33 -16 -53.5t-54 -36.5l77 -132q14 -25 45 -25v-18h-86l-99 174h-67v-118q0 -22 6.5 -30t26.5 -8h17v-18h-164zM351 342h52 q43 0 62 17.5t19 56.5q0 37 -21 57t-60 20h-52v-151z" />
<glyph unicode="&#xaf;" horiz-adv-x="263" d="M5 593v44h253v-44h-253z" />
<glyph unicode="&#xb0;" horiz-adv-x="423" d="M208 452q-37 0 -63.5 28t-26.5 66q0 37 26 64t62 27q40 0 70 -27.5t30 -65.5q0 -40 -28 -66t-70 -26zM213 476q28 0 48 20.5t20 48.5q0 27 -21 47t-50 20t-48 -18.5t-19 -46.5q0 -30 20.5 -50.5t49.5 -20.5z" />
<glyph unicode="&#xb1;" d="M224 126v194h-204v49h204v195h51v-195h205v-49h-205v-194h-51zM20 33v49h460v-49h-460z" />
<glyph unicode="&#xb2;" horiz-adv-x="342" d="M31 268q0 48 22.5 83.5t87.5 87.5q54 44 70.5 68.5t16.5 62.5q0 83 -75 83q-23 0 -39 -10.5t-16 -25.5q0 -6 3.5 -21t3.5 -19q0 -13 -10 -21.5t-25 -8.5q-37 0 -37 37q0 38 36.5 63.5t91.5 25.5q61 0 97 -30t36 -82q0 -38 -20.5 -63t-73.5 -54q-69 -37 -93.5 -59.5 t-37.5 -62.5h157q32 0 42.5 10t10.5 39h21q-1 -25 -1 -47q0 -18 1 -56q-82 2 -125 2h-20q-40 0 -124 -2z" />
<glyph unicode="&#xb3;" horiz-adv-x="341" d="M152 265q-55 0 -88.5 21.5t-33.5 56.5q0 38 38 38q34 0 34 -30q0 -6 -2.5 -19t-2.5 -15q0 -14 14 -23t37 -9q38 0 62 24.5t24 63.5q0 89 -115 92v20q109 5 109 92q0 35 -21 56t-55 21q-49 0 -49 -30q0 -4 3.5 -18.5t3.5 -20.5q0 -14 -10.5 -22t-27.5 -8q-34 0 -34 37 q0 35 33 58t84 23q64 0 100.5 -26t36.5 -72q0 -81 -107 -100q115 -18 115 -103q0 -49 -40 -78t-108 -29z" />
<glyph unicode="&#xb4;" horiz-adv-x="263" d="M64 479l-14 12l38 94q32 83 86 83q17 0 27.5 -7t10.5 -17q0 -12 -8 -22t-41 -44z" />
<glyph unicode="&#xb5;" horiz-adv-x="526" d="M48 -81q29 142 29 352v129h-65v20q64 -2 73 -2q26 0 75 3v-287q0 -120 76 -120q61 0 92.5 58.5t31.5 165.5v163h-65v20q48 -3 74 -3q25 0 75 3v-403h68v-20q-51 3 -76 3q-8 0 -70 -2q0 33 0.5 55.5t0.5 24.5v42q-35 -131 -153 -131q-36 0 -66 21.5t-44 55.5 q0 -51 2 -67.5t15 -90.5q5 -30 5 -44q0 -56 -43 -56q-42 0 -42 56q0 19 7 54z" />
<glyph unicode="&#xb6;" horiz-adv-x="565" d="M241 -95v413q-6 -1 -14 -1q-81 0 -131.5 48t-50.5 125q0 90 59 134t163 44h231v-41h-48v-722h-53v722h-100v-722h-56z" />
<glyph unicode="&#xb7;" horiz-adv-x="320" d="M157 315q-26 0 -42.5 16t-16.5 41t16.5 41.5t42.5 16.5t43 -16t17 -41t-17 -41.5t-43 -16.5z" />
<glyph unicode="&#xb8;" horiz-adv-x="445" d="M186 -128l92 90l14 -11l-37 -98q-22 -59 -68 -59q-14 0 -24.5 8.5t-10.5 19.5q0 18 34 50z" />
<glyph unicode="&#xb9;" horiz-adv-x="339" d="M86 267v21h59v344l-88 -47l-9 17l38 20l92 51h31v-385h51v-21q-54 3 -81 3q-31 0 -93 -3z" />
<glyph unicode="&#xba;" horiz-adv-x="322" d="M162 392q-59 0 -94.5 39.5t-35.5 103.5q0 60 36.5 99t92.5 39q57 0 93.5 -39t36.5 -100q0 -64 -35.5 -103t-93.5 -39zM162 410q76 0 76 124q0 121 -76 121q-77 0 -77 -121q0 -124 77 -124zM20 302v31h283v-31h-283z" />
<glyph unicode="&#xbb;" horiz-adv-x="461" d="M222 11l89 195l-89 201l17 9l167 -210l-167 -205zM47 11l88 195l-88 201l16 9l168 -210l-168 -205z" />
<glyph unicode="&#xbc;" horiz-adv-x="833" d="M192 -22l431 726l26 -16l-431 -724zM98 267v21h59v344l-88 -47l-9 17l38 20l92 51h31v-385h51v-21q-54 3 -81 3q-31 0 -93 -3zM487 103v38l208 266h35v-260h63v-44h-63v-84h53v-21q-51 3 -77 3q-30 0 -92 -3v21h54v84h-181zM518 147h150v192z" />
<glyph unicode="&#xbd;" horiz-adv-x="833" d="M192 -22l431 726l26 -16l-431 -724zM98 267v21h59v344l-88 -47l-9 17l38 20l92 51h31v-385h51v-21q-54 3 -81 3q-31 0 -93 -3zM547 -1q0 48 22.5 83.5t87.5 87.5q54 44 70.5 68.5t16.5 62.5q0 83 -75 83q-23 0 -39 -10.5t-16 -25.5q0 -6 3.5 -21t3.5 -19q0 -13 -10 -21.5 t-25 -8.5q-37 0 -37 37q0 38 36.5 63.5t91.5 25.5q61 0 97 -30t36 -82q0 -38 -20.5 -63t-73.5 -54q-69 -37 -93.5 -59.5t-37.5 -62.5h157q32 0 42.5 10t10.5 39h21q-1 -25 -1 -47q0 -18 1 -56q-82 2 -125 2h-20q-40 0 -124 -2z" />
<glyph unicode="&#xbe;" horiz-adv-x="833" d="M192 -22l431 726l26 -16l-431 -724zM152 265q-55 0 -88.5 21.5t-33.5 56.5q0 38 38 38q34 0 34 -30q0 -6 -2.5 -19t-2.5 -15q0 -14 14 -23t37 -9q38 0 62 24.5t24 63.5q0 89 -115 92v20q109 5 109 92q0 35 -21 56t-55 21q-49 0 -49 -30q0 -4 3.5 -18.5t3.5 -20.5 q0 -14 -10.5 -22t-27.5 -8q-34 0 -34 37q0 35 33 58t84 23q64 0 100.5 -26t36.5 -72q0 -81 -107 -100q115 -18 115 -103q0 -49 -40 -78t-108 -29zM487 103v38l208 266h35v-260h63v-44h-63v-84h53v-21q-51 3 -77 3q-30 0 -92 -3v21h54v84h-181zM518 147h150v192z" />
<glyph unicode="&#xbf;" d="M262 566q-27 0 -43.5 15.5t-16.5 40.5t16.5 41.5t42.5 16.5t43 -16t17 -41t-16.5 -41t-42.5 -16zM33 147q0 46 22 79t75 66l28 17q51 33 72 72t21 101v31h24l-1 -17q0 -65 -4.5 -93.5t-17.5 -51.5q-13 -24 -44 -59l-28 -33q-27 -31 -38 -58.5t-11 -64.5q0 -59 28.5 -91 t81.5 -32q38 0 60 14.5t22 39.5q0 13 -4 24q-6 30 -6 41q0 57 52 57q28 0 44 -15.5t16 -43.5q0 -59 -57 -99.5t-141 -40.5q-85 0 -139.5 44.5t-54.5 112.5z" />
<glyph unicode="&#xc0;" horiz-adv-x="695" d="M377 719l-100 99q-32 32 -40 43t-8 22q0 25 38 25q54 0 86 -83l38 -94zM13 -1v23h41q27 42 70 147l207 504h26l269 -652h53v-23q-73 3 -112 3q-15 0 -125 -2v23h80l-83 200h-266l-25 -61q-33 -82 -48 -140h60v-23q-50 3 -75 3q-8 0 -72 -2zM182 245h248l-123 308z" />
<glyph unicode="&#xc1;" horiz-adv-x="695" d="M306 719l-14 12l38 94q32 83 86 83q17 0 27.5 -7t10.5 -17q0 -12 -8 -22t-41 -44zM13 -1v23h41q27 42 70 147l207 504h26l269 -652h53v-23q-73 3 -112 3q-15 0 -125 -2v23h80l-83 200h-266l-25 -61q-33 -82 -48 -140h60v-23q-50 3 -75 3q-8 0 -72 -2zM182 245h248 l-123 308z" />
<glyph unicode="&#xc2;" horiz-adv-x="695" d="M191 712l122 169h56l122 -169h-33l-117 106l-117 -106h-33zM13 -1v23h41q27 42 70 147l207 504h26l269 -652h53v-23q-73 3 -112 3q-15 0 -125 -2v23h80l-83 200h-266l-25 -61q-33 -82 -48 -140h60v-23q-50 3 -75 3q-8 0 -72 -2zM182 245h248l-123 308z" />
<glyph unicode="&#xc3;" horiz-adv-x="695" d="M194 722q-1 7 -1 19q0 49 23.5 80t61.5 31q24 0 75 -31l24 -15q41 -28 57 -28q41 0 42 74h19q0 -4 0.5 -9t0.5 -7q0 -55 -23 -87t-62 -32q-34 0 -72 26l-27 18q-47 32 -63 32q-36 0 -36 -60q0 -6 1 -11h-20zM13 -1v23h41q27 42 70 147l207 504h26l269 -652h53v-23 q-73 3 -112 3q-15 0 -125 -2v23h80l-83 200h-266l-25 -61q-33 -82 -48 -140h60v-23q-50 3 -75 3q-8 0 -72 -2zM182 245h248l-123 308z" />
<glyph unicode="&#xc4;" horiz-adv-x="695" d="M435 724q-22 0 -36.5 14.5t-14.5 36.5t14.5 36t37.5 14q22 0 36.5 -14.5t14.5 -36.5t-14.5 -36t-37.5 -14zM238 724q-22 0 -36.5 14.5t-14.5 36.5t14.5 36t37.5 14t37 -14t14 -37q0 -22 -14.5 -36t-37.5 -14zM13 -1v23h41q27 42 70 147l207 504h26l269 -652h53v-23 q-73 3 -112 3q-15 0 -125 -2v23h80l-83 200h-266l-25 -61q-33 -82 -48 -140h60v-23q-50 3 -75 3q-8 0 -72 -2zM182 245h248l-123 308z" />
<glyph unicode="&#xc5;" horiz-adv-x="695" d="M346 705q-40 0 -68 27t-28 65q0 40 28.5 68t69.5 28q39 0 66.5 -27.5t27.5 -66.5t-28 -66.5t-68 -27.5zM346 731q29 0 49 20t20 48t-20 47.5t-48 19.5q-29 0 -49 -20t-20 -49q0 -27 20 -46.5t48 -19.5zM13 -1v23h41q27 42 70 147l207 504h26l269 -652h53v-23 q-73 3 -112 3q-15 0 -125 -2v23h80l-83 200h-266l-25 -61q-33 -82 -48 -140h60v-23q-50 3 -75 3q-8 0 -72 -2zM182 245h248l-123 308z" />
<glyph unicode="&#xc6;" horiz-adv-x="962" d="M13 -1v23h57q30 48 66 120l252 503h-91v23l39 -1q5 0 31.5 -0.5t48.5 -0.5q19 0 45.5 -0.5t33.5 -0.5h196l199 3q-3 -51 -3 -76q0 -14 2 -62l1 -32h-24q-7 97 -68 129q-37 18 -105 18h-184l45 -289h51q85 0 111 8t43 38q12 22 13 61h24q-3 -48 -3 -120q0 -69 3 -120h-24 q-2 72 -47 96q-26 13 -112 13h-58l51 -311h103q67 0 103.5 16t55.5 53q17 32 22 94h21v-25l-2 -70l1 -57l2 -33l-199 2h-90q-8 0 -34 -0.5t-45 -0.5q-65 0 -81 -1h-39v23h84l-31 201h-272l-44 -91q-18 -38 -20 -43q-21 -41 -29 -68h92v-23q-66 3 -98 3q-11 0 -93 -2z M217 246h256l-58 399z" />
<glyph unicode="&#xc7;" horiz-adv-x="669" d="M66 333q0 157 85.5 252t228.5 95q56 0 131 -15q36 -8 54 -10q12 -2 30 -2q-2 -53 -2 -106q0 -47 1 -83h-23q-5 44 -11.5 66t-21.5 47q-49 83 -151 83q-106 0 -161 -80.5t-55 -233.5q0 -336 221 -336q84 0 131.5 52t54.5 152h23q0 -21 -0.5 -50t-0.5 -37q0 -1 2 -111h-2 q-29 0 -87 -12q-80 -17 -138 -17q-143 0 -226 93t-83 253zM261 -177q0 17 35 51l90 89l15 -12l-30 -81q-16 -42 -32 -58.5t-42 -16.5q-15 0 -25.5 8t-10.5 20z" />
<glyph unicode="&#xc8;" horiz-adv-x="610" d="M358 719l-100 99q-32 32 -40 43t-8 22q0 25 38 25q54 0 86 -83l38 -94zM25 -1v23h83v623h-83v23l40 -1q5 0 31.5 -0.5t48.5 -0.5q19 0 45.5 -0.5t33.5 -0.5h121l199 3v-170h-22q-6 84 -49 117q-39 30 -136 30h-131v-290h64q88 -1 118.5 21t31.5 88h22l-1 -118l2 -124h-22 q-5 69 -33 89t-119 20h-63v-310h137q103 0 146.5 36.5t45.5 124.5h24v-153l1 -30l-199 2h-136q-8 0 -34.5 -0.5t-45.5 -0.5q-65 0 -80 -1h-40z" />
<glyph unicode="&#xc9;" horiz-adv-x="610" d="M254 719l-14 12l38 94q32 83 86 83q17 0 27.5 -7t10.5 -17q0 -12 -8 -22t-41 -44zM25 -1v23h83v623h-83v23l40 -1q5 0 31.5 -0.5t48.5 -0.5q19 0 45.5 -0.5t33.5 -0.5h121l199 3v-170h-22q-6 84 -49 117q-39 30 -136 30h-131v-290h64q88 -1 118.5 21t31.5 88h22l-1 -118 l2 -124h-22q-5 69 -33 89t-119 20h-63v-310h137q103 0 146.5 36.5t45.5 124.5h24v-153l1 -30l-199 2h-136q-8 0 -34.5 -0.5t-45.5 -0.5q-65 0 -80 -1h-40z" />
<glyph unicode="&#xca;" horiz-adv-x="610" d="M142 712l122 169h56l122 -169h-33l-117 106l-117 -106h-33zM25 -1v23h83v623h-83v23l40 -1q5 0 31.5 -0.5t48.5 -0.5q19 0 45.5 -0.5t33.5 -0.5h121l199 3v-170h-22q-6 84 -49 117q-39 30 -136 30h-131v-290h64q88 -1 118.5 21t31.5 88h22l-1 -118l2 -124h-22 q-5 69 -33 89t-119 20h-63v-310h137q103 0 146.5 36.5t45.5 124.5h24v-153l1 -30l-199 2h-136q-8 0 -34.5 -0.5t-45.5 -0.5q-65 0 -80 -1h-40z" />
<glyph unicode="&#xcb;" horiz-adv-x="610" d="M391 724q-22 0 -36.5 14.5t-14.5 36.5t14.5 36t37.5 14q22 0 36.5 -14.5t14.5 -36.5t-14.5 -36t-37.5 -14zM194 724q-22 0 -36.5 14.5t-14.5 36.5t14.5 36t37.5 14t37 -14t14 -37q0 -22 -14.5 -36t-37.5 -14zM25 -1v23h83v623h-83v23l40 -1q5 0 31.5 -0.5t48.5 -0.5 q19 0 45.5 -0.5t33.5 -0.5h121l199 3v-170h-22q-6 84 -49 117q-39 30 -136 30h-131v-290h64q88 -1 118.5 21t31.5 88h22l-1 -118l2 -124h-22q-5 69 -33 89t-119 20h-63v-310h137q103 0 146.5 36.5t45.5 124.5h24v-153l1 -30l-199 2h-136q-8 0 -34.5 -0.5t-45.5 -0.5 q-65 0 -80 -1h-40z" />
<glyph unicode="&#xcc;" horiz-adv-x="313" d="M191 719l-100 99q-32 32 -40 43t-8 22q0 25 38 25q54 0 86 -83l38 -94zM26 -1v23h84v623h-84v23q116 -4 131 -4q14 0 132 4v-23h-84v-623h83v-23q-112 2 -128 2q-14 0 -134 -2z" />
<glyph unicode="&#xcd;" horiz-adv-x="313" d="M122 719l-14 12l38 94q32 83 86 83q17 0 27.5 -7t10.5 -17q0 -12 -8 -22t-41 -44zM26 -1v23h84v623h-84v23q116 -4 131 -4q14 0 132 4v-23h-84v-623h83v-23q-112 2 -128 2q-14 0 -134 -2z" />
<glyph unicode="&#xce;" horiz-adv-x="313" d="M7 712l122 169h56l122 -169h-33l-117 106l-117 -106h-33zM26 -1v23h84v623h-84v23q116 -4 131 -4q14 0 132 4v-23h-84v-623h83v-23q-112 2 -128 2q-14 0 -134 -2z" />
<glyph unicode="&#xcf;" horiz-adv-x="313" d="M260 724q-22 0 -36.5 14.5t-14.5 36.5t14.5 36t37.5 14t37 -14.5t14 -36.5t-14.5 -36t-37.5 -14zM63 724q-22 0 -36.5 14.5t-14.5 36.5t14.5 36t37.5 14t37 -14t14 -37q0 -22 -14.5 -36t-37.5 -14zM26 -1v23h84v623h-84v23q116 -4 131 -4q14 0 132 4v-23h-84v-623h83v-23 q-112 2 -128 2q-14 0 -134 -2z" />
<glyph unicode="&#xd0;" horiz-adv-x="739" d="M28 -1v23h83v310h-83v22h83v291h-83v23q57 -3 185 -3h65q118 0 170.5 -11t101.5 -47q59 -42 91.5 -114.5t32.5 -160.5q0 -95 -38.5 -170.5t-106.5 -113.5q-52 -29 -104.5 -38.5t-160.5 -9.5h-181q-30 0 -55 -1zM207 21h69q166 0 230.5 76t64.5 234q0 165 -66 239.5 t-213 74.5h-85v-291h185v-22h-185v-311z" />
<glyph unicode="&#xd1;" horiz-adv-x="723" d="M207 722q-1 7 -1 19q0 49 23.5 80t61.5 31q24 0 75 -31l24 -15q41 -28 57 -28q41 0 42 74h19q0 -4 0.5 -9t0.5 -7q0 -55 -23 -87t-62 -32q-34 0 -72 26l-27 18q-47 32 -63 32q-36 0 -36 -60q0 -6 1 -11h-20zM23 -1v23h77q7 66 7 139v484h-84v23l57.5 -2.5t46.5 -1.5 q31 0 91 4l370 -521v356q0 69 -11 142h-75v23q86 -4 97 -4t97 4v-23h-75q-8 -64 -8 -142v-510l-36 1l-444 632v-464q0 -80 13 -141h72v-23q-64 3 -97 3q-12 0 -98 -2z" />
<glyph unicode="&#xd2;" horiz-adv-x="753" d="M410 719l-100 99q-32 32 -40 43t-8 22q0 25 38 25q54 0 86 -83l38 -94zM62 332q0 159 86.5 255t229.5 96q137 0 223 -96.5t86 -251.5q0 -161 -85.5 -256t-230.5 -95q-141 0 -225 94t-84 254zM207 109q25 -50 68.5 -77t97.5 -27q102 0 155.5 84t53.5 245q0 160 -52.5 244 t-153.5 84q-53 0 -96.5 -26.5t-68.5 -74.5q-44 -83 -44 -226q0 -147 40 -226z" />
<glyph unicode="&#xd3;" horiz-adv-x="753" d="M338 719l-14 12l38 94q32 83 86 83q17 0 27.5 -7t10.5 -17q0 -12 -8 -22t-41 -44zM62 332q0 159 86.5 255t229.5 96q137 0 223 -96.5t86 -251.5q0 -161 -85.5 -256t-230.5 -95q-141 0 -225 94t-84 254zM207 109q25 -50 68.5 -77t97.5 -27q102 0 155.5 84t53.5 245 q0 160 -52.5 244t-153.5 84q-53 0 -96.5 -26.5t-68.5 -74.5q-44 -83 -44 -226q0 -147 40 -226z" />
<glyph unicode="&#xd4;" horiz-adv-x="753" d="M222 727l122 169h56l122 -169h-33l-117 106l-117 -106h-33zM62 332q0 159 86.5 255t229.5 96q137 0 223 -96.5t86 -251.5q0 -161 -85.5 -256t-230.5 -95q-141 0 -225 94t-84 254zM207 109q25 -50 68.5 -77t97.5 -27q102 0 155.5 84t53.5 245q0 160 -52.5 244t-153.5 84 q-53 0 -96.5 -26.5t-68.5 -74.5q-44 -83 -44 -226q0 -147 40 -226z" />
<glyph unicode="&#xd5;" horiz-adv-x="753" d="M221 732q-1 7 -1 19q0 49 23.5 80t61.5 31q24 0 75 -31l24 -15q41 -28 57 -28q41 0 42 74h19q0 -4 0.5 -9t0.5 -7q0 -55 -23 -87t-62 -32q-34 0 -72 26l-27 18q-47 32 -63 32q-36 0 -36 -60q0 -6 1 -11h-20zM62 332q0 159 86.5 255t229.5 96q137 0 223 -96.5t86 -251.5 q0 -161 -85.5 -256t-230.5 -95q-141 0 -225 94t-84 254zM207 109q25 -50 68.5 -77t97.5 -27q102 0 155.5 84t53.5 245q0 160 -52.5 244t-153.5 84q-53 0 -96.5 -26.5t-68.5 -74.5q-44 -83 -44 -226q0 -147 40 -226z" />
<glyph unicode="&#xd6;" horiz-adv-x="753" d="M482 729q-22 0 -36.5 14.5t-14.5 36.5t14.5 36t37.5 14t37 -14t14 -37q0 -22 -14.5 -36t-37.5 -14zM285 729q-22 0 -36.5 14.5t-14.5 36.5t14.5 36t37.5 14t37 -14t14 -37q0 -22 -14.5 -36t-37.5 -14zM62 332q0 159 86.5 255t229.5 96q137 0 223 -96.5t86 -251.5 q0 -161 -85.5 -256t-230.5 -95q-141 0 -225 94t-84 254zM207 109q25 -50 68.5 -77t97.5 -27q102 0 155.5 84t53.5 245q0 160 -52.5 244t-153.5 84q-53 0 -96.5 -26.5t-68.5 -74.5q-44 -83 -44 -226q0 -147 40 -226z" />
<glyph unicode="&#xd7;" d="M94 153l-36 36l157 157l-156 155l35 35l156 -156l156 157l36 -36l-157 -156l156 -156l-34 -35l-156 156z" />
<glyph unicode="&#xd8;" horiz-adv-x="753" d="M149 -64l49 97q-65 43 -100.5 120t-35.5 179q0 159 86.5 255t229.5 96q72 0 135 -30l46 91l31 -15l-47 -93q68 -44 106 -122.5t38 -178.5q0 -161 -85.5 -256t-230.5 -95q-77 0 -144 32l-48 -96zM207 109q9 -17 16 -27l272 535v1q-47 44 -119 44q-53 0 -96.5 -26.5 t-68.5 -74.5q-44 -83 -44 -226q0 -147 40 -226zM247 54q51 -49 126 -49q102 0 155.5 84t53.5 245q0 174 -62 257z" />
<glyph unicode="&#xd9;" horiz-adv-x="696" d="M386 719l-100 99q-32 32 -40 43t-8 22q0 25 38 25q54 0 86 -83l38 -94zM132 92q-34 61 -34 175v378h-83v23l72.5 -2.5t56.5 -1.5q14 0 132 4v-23h-81v-398q0 -103 28 -156q20 -37 60.5 -58.5t89.5 -21.5t92.5 20.5t68.5 55.5q39 53 39 169v255q0 80 -9 134h-74v23 q88 -4 99 -4t91 4v-23h-67q-11 -53 -11 -134v-255q0 -68 -10.5 -109.5t-35.5 -74.5q-64 -85 -200 -85q-78 0 -137 27.5t-87 77.5z" />
<glyph unicode="&#xda;" horiz-adv-x="696" d="M352 719l-14 12l38 94q32 83 86 83q17 0 27.5 -7t10.5 -17q0 -12 -8 -22t-41 -44zM132 92q-34 61 -34 175v378h-83v23l72.5 -2.5t56.5 -1.5q14 0 132 4v-23h-81v-398q0 -103 28 -156q20 -37 60.5 -58.5t89.5 -21.5t92.5 20.5t68.5 55.5q39 53 39 169v255q0 80 -9 134h-74 v23q88 -4 99 -4t91 4v-23h-67q-11 -53 -11 -134v-255q0 -68 -10.5 -109.5t-35.5 -74.5q-64 -85 -200 -85q-78 0 -137 27.5t-87 77.5z" />
<glyph unicode="&#xdb;" horiz-adv-x="696" d="M200 712l122 169h56l122 -169h-33l-117 106l-117 -106h-33zM132 92q-34 61 -34 175v378h-83v23l72.5 -2.5t56.5 -1.5q14 0 132 4v-23h-81v-398q0 -103 28 -156q20 -37 60.5 -58.5t89.5 -21.5t92.5 20.5t68.5 55.5q39 53 39 169v255q0 80 -9 134h-74v23q88 -4 99 -4t91 4 v-23h-67q-11 -53 -11 -134v-255q0 -68 -10.5 -109.5t-35.5 -74.5q-64 -85 -200 -85q-78 0 -137 27.5t-87 77.5z" />
<glyph unicode="&#xdc;" horiz-adv-x="696" d="M473 724q-22 0 -36.5 14.5t-14.5 36.5t14.5 36t37.5 14q22 0 36.5 -14.5t14.5 -36.5t-14.5 -36t-37.5 -14zM276 724q-22 0 -36.5 14.5t-14.5 36.5t14.5 36t37.5 14t37 -14t14 -37q0 -22 -14.5 -36t-37.5 -14zM132 92q-34 61 -34 175v378h-83v23l72.5 -2.5t56.5 -1.5 q14 0 132 4v-23h-81v-398q0 -103 28 -156q20 -37 60.5 -58.5t89.5 -21.5t92.5 20.5t68.5 55.5q39 53 39 169v255q0 80 -9 134h-74v23q88 -4 99 -4t91 4v-23h-67q-11 -53 -11 -134v-255q0 -68 -10.5 -109.5t-35.5 -74.5q-64 -85 -200 -85q-78 0 -137 27.5t-87 77.5z" />
<glyph unicode="&#xdd;" horiz-adv-x="645" d="M318 719l-14 12l38 94q32 83 86 83q17 0 27.5 -7t10.5 -17q0 -12 -8 -22t-41 -44zM193 -1v23h83v256l-212 367h-54v23q112 -4 126 -4q15 0 129 4v-23h-89l186 -326l126 229q34 60 46 97h-77v23q78 -4 87 -4q10 0 86 4v-23h-48q-44 -59 -72 -111l-139 -256v-256h86v-23 q-114 2 -130 2q-14 0 -134 -2z" />
<glyph unicode="&#xde;" horiz-adv-x="584" d="M23 -1v23h83v623h-83v23q53 -2 129 -2q44 0 132 3v-24h-83v-114h77q82 0 125.5 -9t76.5 -32q66 -46 66 -134q0 -113 -91 -157q-71 -34 -200 -34h-54v-143h98v-23q-122 2 -138 2q-14 0 -138 -2zM201 187h51q99 0 141 34q51 41 51 131q0 158 -150 158h-93v-323z" />
<glyph unicode="&#xdf;" horiz-adv-x="555" d="M22 -1v20h65v426q0 114 54.5 172.5t159.5 58.5q80 0 125.5 -36.5t45.5 -100.5q0 -29 -10.5 -47t-36.5 -34l-41 -27q-41 -26 -41 -67t48 -68l63 -36q42 -24 60.5 -52t18.5 -68q0 -65 -44.5 -106t-115.5 -41q-12 0 -46 2q-40 4 -51 4h-14l2 55v7.5t-0.5 17t-0.5 22.5 q-1 5 -1 22h21q3 -111 91 -111q41 0 67.5 25t26.5 65q0 31 -16.5 51.5t-63.5 47.5l-44 26q-40 23 -56.5 47t-16.5 59q0 53 50 86l25 17q27 18 36.5 37.5t9.5 57.5q0 129 -98 129q-122 0 -122 -174v-468h61v-20q-69 3 -104 3q-11 0 -107 -2z" />
<glyph unicode="&#xe0;" horiz-adv-x="498" d="M273 479l-100 99q-32 32 -40 43t-8 22q0 25 38 25q54 0 86 -83l38 -94zM51 109q0 72 64.5 104.5t217.5 38.5v44q0 62 -22 88t-74 26q-77 0 -77 -44q0 -10 1 -16v-14q0 -53 -44 -53t-44 39q0 50 45 79t123 29q81 0 131 -39q24 -19 33.5 -43.5t9.5 -68.5v-260h63v-20 q-64 2 -73 2q-8 0 -72 -2v33q0 1 0.5 5.5t1 13.5t0.5 18q0 3 0.5 13.5t0.5 18.5q-22 -59 -56.5 -85t-91.5 -26q-63 0 -100 32t-37 87zM136 111q0 -46 20 -71.5t57 -25.5t68 27.5t42 70.5q10 43 10 109v10q-76 -1 -113.5 -11t-59.5 -33q-24 -27 -24 -76z" />
<glyph unicode="&#xe1;" horiz-adv-x="498" d="M225 479l-14 12l38 94q32 83 86 83q17 0 27.5 -7t10.5 -17q0 -12 -7.5 -22t-41.5 -44zM51 109q0 72 64.5 104.5t217.5 38.5v44q0 62 -22 88t-74 26q-77 0 -77 -44q0 -10 1 -16v-14q0 -53 -44 -53t-44 39q0 50 45 79t123 29q81 0 131 -39q24 -19 33.5 -43.5t9.5 -68.5 v-260h63v-20q-64 2 -73 2q-8 0 -72 -2v33q0 1 0.5 5.5t1 13.5t0.5 18q0 3 0.5 13.5t0.5 18.5q-22 -59 -56.5 -85t-91.5 -26q-63 0 -100 32t-37 87zM136 111q0 -46 20 -71.5t57 -25.5t68 27.5t42 70.5q10 43 10 109v10q-76 -1 -113.5 -11t-59.5 -33q-24 -27 -24 -76z" />
<glyph unicode="&#xe2;" horiz-adv-x="498" d="M105 487l122 169h56l122 -169h-33l-117 106l-117 -106h-33zM51 109q0 72 64.5 104.5t217.5 38.5v44q0 62 -22 88t-74 26q-77 0 -77 -44q0 -10 1 -16v-14q0 -53 -44 -53t-44 39q0 50 45 79t123 29q81 0 131 -39q24 -19 33.5 -43.5t9.5 -68.5v-260h63v-20q-64 2 -73 2 q-8 0 -72 -2v33q0 1 0.5 5.5t1 13.5t0.5 18q0 3 0.5 13.5t0.5 18.5q-22 -59 -56.5 -85t-91.5 -26q-63 0 -100 32t-37 87zM136 111q0 -46 20 -71.5t57 -25.5t68 27.5t42 70.5q10 43 10 109v10q-76 -1 -113.5 -11t-59.5 -33q-24 -27 -24 -76z" />
<glyph unicode="&#xe3;" horiz-adv-x="498" d="M99 522q-1 7 -1 19q0 49 23.5 80t61.5 31q24 0 75 -31l24 -15q41 -28 57 -28q41 0 42 74h19q0 -4 0.5 -9t0.5 -7q0 -55 -23 -87t-62 -32q-34 0 -72 26l-27 18q-47 32 -63 32q-36 0 -36 -60q0 -6 1 -11h-20zM51 109q0 72 64.5 104.5t217.5 38.5v44q0 62 -22 88t-74 26 q-77 0 -77 -44q0 -10 1 -16v-14q0 -53 -44 -53t-44 39q0 50 45 79t123 29q81 0 131 -39q24 -19 33.5 -43.5t9.5 -68.5v-260h63v-20q-64 2 -73 2q-8 0 -72 -2v33q0 1 0.5 5.5t1 13.5t0.5 18q0 3 0.5 13.5t0.5 18.5q-22 -59 -56.5 -85t-91.5 -26q-63 0 -100 32t-37 87z M136 111q0 -46 20 -71.5t57 -25.5t68 27.5t42 70.5q10 43 10 109v10q-76 -1 -113.5 -11t-59.5 -33q-24 -27 -24 -76z" />
<glyph unicode="&#xe4;" horiz-adv-x="498" d="M344 529q-22 0 -36.5 14.5t-14.5 36.5t14.5 36t37.5 14t37 -14t14 -37q0 -22 -14.5 -36t-37.5 -14zM147 529q-22 0 -36.5 14.5t-14.5 36.5t14.5 36t37.5 14t37 -14t14 -37q0 -22 -14.5 -36t-37.5 -14zM51 109q0 72 64.5 104.5t217.5 38.5v44q0 62 -22 88t-74 26 q-77 0 -77 -44q0 -10 1 -16v-14q0 -53 -44 -53t-44 39q0 50 45 79t123 29q81 0 131 -39q24 -19 33.5 -43.5t9.5 -68.5v-260h63v-20q-64 2 -73 2q-8 0 -72 -2v33q0 1 0.5 5.5t1 13.5t0.5 18q0 3 0.5 13.5t0.5 18.5q-22 -59 -56.5 -85t-91.5 -26q-63 0 -100 32t-37 87z M136 111q0 -46 20 -71.5t57 -25.5t68 27.5t42 70.5q10 43 10 109v10q-76 -1 -113.5 -11t-59.5 -33q-24 -27 -24 -76z" />
<glyph unicode="&#xe5;" horiz-adv-x="498" d="M248 470q-40 0 -68 27t-28 65q0 40 28.5 68t69.5 28q39 0 66.5 -27.5t27.5 -66.5t-28 -66.5t-68 -27.5zM248 496q29 0 49 20t20 48t-20 47.5t-48 19.5q-29 0 -49 -20.5t-20 -48.5q0 -27 20 -46.5t48 -19.5zM51 109q0 72 64.5 104.5t217.5 38.5v44q0 62 -22 88t-74 26 q-77 0 -77 -44q0 -10 1 -16v-14q0 -53 -44 -53t-44 39q0 50 45 79t123 29q81 0 131 -39q24 -19 33.5 -43.5t9.5 -68.5v-260h63v-20q-64 2 -73 2q-8 0 -72 -2v33q0 1 0.5 5.5t1 13.5t0.5 18q0 3 0.5 13.5t0.5 18.5q-22 -59 -56.5 -85t-91.5 -26q-63 0 -100 32t-37 87z M136 111q0 -46 20 -71.5t57 -25.5t68 27.5t42 70.5q10 43 10 109v10q-76 -1 -113.5 -11t-59.5 -33q-24 -27 -24 -76z" />
<glyph unicode="&#xe6;" horiz-adv-x="780" d="M51 111q0 72 69.5 99t226.5 29l-1 34q-2 74 -27 106.5t-80 32.5q-76 0 -76 -55v-26q0 -50 -42 -50q-46 0 -46 44q0 49 44.5 77t121.5 28q63 0 95 -14.5t54 -52.5q29 36 63 51.5t86 15.5q91 0 139.5 -51t48.5 -146v-12h-295v-11q0 -98 32.5 -150t94.5 -52q99 0 142 111 l19 -7q-46 -122 -174 -122q-101 0 -156 83q-28 -46 -66.5 -64.5t-103.5 -18.5q-80 0 -124.5 32t-44.5 89zM432 239h205v17q0 83 -21 119.5t-72 36.5q-55 0 -82 -42t-30 -131zM138 107q0 -47 23.5 -72.5t67.5 -25.5q61 0 88 44.5t29 133.5l1 34h-10q-108 0 -153.5 -26 t-45.5 -88z" />
<glyph unicode="&#xe7;" horiz-adv-x="453" d="M171 58q33 -48 93 -48q97 0 133 103l20 -6q-34 -117 -169 -117q-91 0 -146.5 60t-55.5 158q0 102 58.5 162t157.5 60q71 0 114 -27t43 -71q0 -22 -12.5 -34t-34.5 -12q-44 0 -44 40q0 10 1 17t1 19q0 23 -19 36.5t-50 13.5q-64 0 -93 -48t-29 -155q0 -106 32 -151z M186 -128l92 90l14 -11l-37 -98q-22 -59 -68 -59q-14 0 -24.5 8.5t-10.5 19.5q0 18 34 50z" />
<glyph unicode="&#xe8;" d="M285 479l-100 99q-32 32 -40 43t-8 22q0 25 38 25q54 0 86 -83l38 -94zM51 207q0 103 54.5 163t147.5 60q92 0 142 -55.5t52 -160.5h-306q0 -204 134 -204q51 0 88.5 28.5t56.5 80.5l20 -6q-44 -123 -178 -123q-95 0 -153 60t-58 157zM141 234h215q-3 94 -23 134 q-21 43 -76 43q-56 0 -82.5 -40.5t-33.5 -136.5z" />
<glyph unicode="&#xe9;" d="M221 479l-14 12l38 94q32 83 86 83q17 0 27.5 -7t10.5 -17q0 -12 -7.5 -22t-41.5 -44zM51 207q0 103 54.5 163t147.5 60q92 0 142 -55.5t52 -160.5h-306q0 -204 134 -204q51 0 88.5 28.5t56.5 80.5l20 -6q-44 -123 -178 -123q-95 0 -153 60t-58 157zM141 234h215 q-3 94 -23 134q-21 43 -76 43q-56 0 -82.5 -40.5t-33.5 -136.5z" />
<glyph unicode="&#xea;" d="M98 487l122 169h56l122 -169h-33l-117 106l-117 -106h-33zM51 207q0 103 54.5 163t147.5 60q92 0 142 -55.5t52 -160.5h-306q0 -204 134 -204q51 0 88.5 28.5t56.5 80.5l20 -6q-44 -123 -178 -123q-95 0 -153 60t-58 157zM141 234h215q-3 94 -23 134q-21 43 -76 43 q-56 0 -82.5 -40.5t-33.5 -136.5z" />
<glyph unicode="&#xeb;" d="M346 529q-22 0 -36.5 14.5t-14.5 36.5t14.5 36t37.5 14t37 -14t14 -37q0 -22 -14.5 -36t-37.5 -14zM149 529q-22 0 -36.5 14.5t-14.5 36.5t14.5 36t37.5 14t37 -14t14 -37q0 -22 -14.5 -36t-37.5 -14zM51 207q0 103 54.5 163t147.5 60q92 0 142 -55.5t52 -160.5h-306 q0 -204 134 -204q51 0 88.5 28.5t56.5 80.5l20 -6q-44 -123 -178 -123q-95 0 -153 60t-58 157zM141 234h215q-3 94 -23 134q-21 43 -76 43q-56 0 -82.5 -40.5t-33.5 -136.5z" />
<glyph unicode="&#xec;" horiz-adv-x="263" d="M169 479l-100 99q-32 32 -40 43t-8 22q0 25 38 25q54 0 86 -83l38 -94zM28 -1v20h66v383h-66v20q44 -4 74 -4q25 0 76 3v-403h65v-20q-71 3 -107 3q-12 0 -108 -2z" />
<glyph unicode="&#xed;" horiz-adv-x="263" d="M84 479l-14 12l38 94q32 83 86 83q17 0 27.5 -7t10.5 -17q0 -12 -8 -22t-41 -44zM28 -1v20h66v383h-66v20q44 -4 74 -4q25 0 76 3v-403h65v-20q-71 3 -107 3q-12 0 -108 -2z" />
<glyph unicode="&#xee;" horiz-adv-x="263" d="M11 487h-33l122 169h56l122 -169h-33l-117 106zM28 -1v20h66v383h-66v20q44 -4 74 -4q25 0 76 3v-403h65v-20q-71 3 -107 3q-12 0 -108 -2z" />
<glyph unicode="&#xef;" horiz-adv-x="263" d="M230 494q-22 0 -36.5 14.5t-14.5 36.5t14.5 36t37.5 14t37 -14.5t14 -36.5t-14.5 -36t-37.5 -14zM33 494q-22 0 -36.5 14.5t-14.5 36.5t14.5 36t37.5 14t37 -14t14 -37q0 -22 -14.5 -36t-37.5 -14zM28 -1v20h66v383h-66v20q44 -4 74 -4q25 0 76 3v-403h65v-20 q-71 3 -107 3q-12 0 -108 -2z" />
<glyph unicode="&#xf0;" horiz-adv-x="528" d="M53 205q0 105 57.5 166.5t157.5 61.5q61 0 102 -23h2q-23 120 -107 206l-105 -58l-10 14l102 57q-52 50 -118 79l9 12q83 -24 145 -72l98 55l10 -14l-92 -51q23 -16 50 -46.5t57 -78t49.5 -117t19.5 -144.5q0 -265 -217 -265q-95 0 -152.5 59.5t-57.5 158.5zM144 207 q0 -205 118 -205q124 0 124 208q0 105 -29 154.5t-91 49.5q-122 0 -122 -207z" />
<glyph unicode="&#xf1;" horiz-adv-x="556" d="M128 522q-1 7 -1 19q0 49 23.5 80t61.5 31q24 0 75 -31l24 -15q41 -28 57 -28q41 0 42 74h19q0 -4 0.5 -9t0.5 -7q0 -55 -23 -87t-62 -32q-34 0 -72 26l-27 18q-47 32 -63 32q-36 0 -36 -60q0 -6 1 -11h-20zM25 -1v20h66v383h-66v20q43 -4 71 -4q26 0 75 3v-136 q7 40 17 60.5t30 40.5q44 44 111 44q78 0 112 -50q16 -22 21.5 -45.5t5.5 -66.5v-250h67v-20q-72 3 -109 3q-11 0 -109 -2v20h65v250q0 74 -16.5 103.5t-57.5 29.5q-132 0 -132 -251v-133h67v-20q-72 3 -109 3q-13 0 -109 -2z" />
<glyph unicode="&#xf2;" horiz-adv-x="528" d="M306 479l-100 99q-32 32 -40 43t-8 22q0 25 38 25q54 0 86 -83l38 -94zM53 205q0 105 57.5 166.5t157.5 61.5q96 0 152.5 -61t56.5 -164t-57.5 -162t-156.5 -59q-95 0 -152.5 59.5t-57.5 158.5zM144 207q0 -205 118 -205q124 0 124 208q0 105 -29 154.5t-91 49.5 q-122 0 -122 -207z" />
<glyph unicode="&#xf3;" horiz-adv-x="528" d="M220 479l-14 12l38 94q32 83 86 83q17 0 27.5 -7t10.5 -17q0 -12 -8 -22t-41 -44zM53 205q0 105 57.5 166.5t157.5 61.5q96 0 152.5 -61t56.5 -164t-57.5 -162t-156.5 -59q-95 0 -152.5 59.5t-57.5 158.5zM144 207q0 -205 118 -205q124 0 124 208q0 105 -29 154.5 t-91 49.5q-122 0 -122 -207z" />
<glyph unicode="&#xf4;" horiz-adv-x="528" d="M113 487l122 169h56l122 -169h-33l-117 106l-117 -106h-33zM53 205q0 105 57.5 166.5t157.5 61.5q96 0 152.5 -61t56.5 -164t-57.5 -162t-156.5 -59q-95 0 -152.5 59.5t-57.5 158.5zM144 207q0 -205 118 -205q124 0 124 208q0 105 -29 154.5t-91 49.5q-122 0 -122 -207z " />
<glyph unicode="&#xf5;" horiz-adv-x="528" d="M114 522q-1 7 -1 19q0 49 23.5 80t61.5 31q24 0 75 -31l24 -15q41 -28 57 -28q41 0 42 74h19q0 -4 0.5 -9t0.5 -7q0 -55 -23 -87t-62 -32q-34 0 -72 26l-27 18q-47 32 -63 32q-36 0 -36 -60q0 -6 1 -11h-20zM53 205q0 105 57.5 166.5t157.5 61.5q96 0 152.5 -61 t56.5 -164t-57.5 -162t-156.5 -59q-95 0 -152.5 59.5t-57.5 158.5zM144 207q0 -205 118 -205q124 0 124 208q0 105 -29 154.5t-91 49.5q-122 0 -122 -207z" />
<glyph unicode="&#xf6;" horiz-adv-x="528" d="M373 529q-22 0 -36.5 14.5t-14.5 36.5t14.5 36t37.5 14q22 0 36.5 -14t14.5 -37q0 -22 -14.5 -36t-37.5 -14zM176 529q-22 0 -36.5 14.5t-14.5 36.5t14.5 36t37.5 14t37 -14t14 -37q0 -22 -14.5 -36t-37.5 -14zM53 205q0 105 57.5 166.5t157.5 61.5q96 0 152.5 -61 t56.5 -164t-57.5 -162t-156.5 -59q-95 0 -152.5 59.5t-57.5 158.5zM144 207q0 -205 118 -205q124 0 124 208q0 105 -29 154.5t-91 49.5q-122 0 -122 -207z" />
<glyph unicode="&#xf7;" d="M250 483q-18 0 -30.5 12.5t-12.5 30.5t12.5 30.5t30.5 12.5t30.5 -12.5t12.5 -30.5t-12.5 -30.5t-30.5 -12.5zM20 320v49h460v-49h-460zM207 163q0 18 12.5 30.5t30.5 12.5t30.5 -12.5t12.5 -30.5t-12.5 -30.5t-30.5 -12.5t-30.5 12.5t-12.5 30.5z" />
<glyph unicode="&#xf8;" horiz-adv-x="528" d="M88 -91l58 108q-93 57 -93 188q0 105 57.5 166.5t157.5 61.5q50 0 93 -19l59 107l27 -14l-59 -106l-1 -1q90 -60 90 -192q0 -103 -57.5 -162t-156.5 -59q-47 0 -89 16l-60 -109zM169 60l174 323q-28 31 -77 31q-122 0 -122 -207q0 -97 25 -147zM189 31q28 -29 73 -29 q124 0 124 208q0 93 -24 144l-171 -320z" />
<glyph unicode="&#xf9;" horiz-adv-x="526" d="M272 479l-100 99q-32 32 -40 43t-8 22q0 25 38 25q54 0 86 -83l38 -94zM100 47q-14 23 -18.5 46t-4.5 72v236h-65v20q15 0 40 -1.5t33 -1.5q26 0 75 3v-287q0 -120 76 -120q30 0 59 21.5t43 53.5q22 53 22 149v163h-65v20q48 -3 74 -3q25 0 75 3v-403h68v-20q-51 3 -76 3 q-8 0 -70 -2v54v3q0 4 0.5 10t0.5 13v42q-14 -53 -37 -80q-43 -51 -116 -51q-78 0 -114 57z" />
<glyph unicode="&#xfa;" horiz-adv-x="526" d="M213 479l-14 12l38 94q32 83 86 83q17 0 27.5 -7t10.5 -17q0 -12 -7.5 -22t-41.5 -44zM100 47q-14 23 -18.5 46t-4.5 72v236h-65v20q15 0 40 -1.5t33 -1.5q26 0 75 3v-287q0 -120 76 -120q30 0 59 21.5t43 53.5q22 53 22 149v163h-65v20q48 -3 74 -3q25 0 75 3v-403h68 v-20q-51 3 -76 3q-8 0 -70 -2v54v3q0 4 0.5 10t0.5 13v42q-14 -53 -37 -80q-43 -51 -116 -51q-78 0 -114 57z" />
<glyph unicode="&#xfb;" horiz-adv-x="526" d="M111 487l122 169h56l122 -169h-33l-117 106l-117 -106h-33zM100 47q-14 23 -18.5 46t-4.5 72v236h-65v20q15 0 40 -1.5t33 -1.5q26 0 75 3v-287q0 -120 76 -120q30 0 59 21.5t43 53.5q22 53 22 149v163h-65v20q48 -3 74 -3q25 0 75 3v-403h68v-20q-51 3 -76 3 q-8 0 -70 -2v54v3q0 4 0.5 10t0.5 13v42q-14 -53 -37 -80q-43 -51 -116 -51q-78 0 -114 57z" />
<glyph unicode="&#xfc;" horiz-adv-x="526" d="M352 529q-22 0 -36.5 14.5t-14.5 36.5t14.5 36t37.5 14t37 -14t14 -37q0 -22 -14.5 -36t-37.5 -14zM155 529q-22 0 -36.5 14.5t-14.5 36.5t14.5 36t37.5 14t37 -14t14 -37q0 -22 -14.5 -36t-37.5 -14zM100 47q-14 23 -18.5 46t-4.5 72v236h-65v20q15 0 40 -1.5t33 -1.5 q26 0 75 3v-287q0 -120 76 -120q30 0 59 21.5t43 53.5q22 53 22 149v163h-65v20q48 -3 74 -3q25 0 75 3v-403h68v-20q-51 3 -76 3q-8 0 -70 -2v54v3q0 4 0.5 10t0.5 13v42q-14 -53 -37 -80q-43 -51 -116 -51q-78 0 -114 57z" />
<glyph unicode="&#xfd;" horiz-adv-x="482" d="M207 479l-14 12l38 94q32 83 86 83q17 0 27.5 -7t10.5 -17q0 -12 -7.5 -22t-41.5 -44zM70 -140q12 0 29 -5l28 -9q4 -2 13 -2q20 0 31 13t27 53l34 89l-176 402h-43v20q72 -3 109 -3q24 0 93 3v-20h-67l128 -299l78 197q25 63 28 82l4 20h-51v20q42 -3 65 -3q24 0 70 3 v-20h-42q-16 -23 -19 -30l-194 -469q-29 -71 -58 -100t-72 -29q-54 0 -54 44q0 43 39 43z" />
<glyph unicode="&#xfe;" horiz-adv-x="547" d="M169 98v-306h76v-20q-98 4 -112 4q-12 0 -114 -4v20h67v857h-67v20q55 -5 75 -5q9 0 75 4v-247q0 -25 -5 -112q16 54 48 82q42 39 102 39q82 0 130.5 -58.5t48.5 -157.5q0 -100 -49.5 -162t-128.5 -62q-107 0 -146 108zM169 215q0 -93 36.5 -150t96.5 -57q52 0 75.5 46 t23.5 146v15q-2 102 -25.5 146.5t-74.5 44.5q-59 0 -95.5 -52.5t-36.5 -138.5z" />
<glyph unicode="&#xff;" horiz-adv-x="482" d="M338 529q-22 0 -36.5 14.5t-14.5 36.5t14.5 36t37.5 14t37 -14t14 -37q0 -22 -14.5 -36t-37.5 -14zM141 529q-22 0 -36.5 14.5t-14.5 36.5t14.5 36t37.5 14t37 -14t14 -37q0 -22 -14.5 -36t-37.5 -14zM70 -140q12 0 29 -5l28 -9q4 -2 13 -2q20 0 31 13t27 53l34 89 l-176 402h-43v20q72 -3 109 -3q24 0 93 3v-20h-67l128 -299l78 197q25 63 28 82l4 20h-51v20q42 -3 65 -3q24 0 70 3v-20h-42q-16 -23 -19 -30l-194 -469q-29 -71 -58 -100t-72 -29q-54 0 -54 44q0 43 39 43z" />
<glyph unicode="&#x152;" horiz-adv-x="1004" d="M62 328q0 164 90.5 254.5t253.5 90.5q37 0 110 -4q64 -2 86 -2h226l79 2h35q-2 -34 -2 -75q0 -56 3 -99h-24q-2 52 -14.5 80.5t-40.5 45.5q-39 24 -118 24h-133v-290h53q87 0 115.5 20t32.5 86h23q-2 -86 -2 -102q0 -67 4 -140h-24q-1 67 -30.5 90t-113.5 23h-59v-311 h153q114 0 147 73q15 33 17 88h25l-1 -29q-2 -29 -2 -76q0 -34 1 -53l1 -28l-36 1q-74 2 -153 2h-163q-27 0 -83 -2q-66 -3 -117 -3q-161 0 -250 87.5t-89 246.5zM165 328q0 -159 64.5 -236t197.5 -77q36 0 91 9v621q-56 6 -90 6q-263 0 -263 -323z" />
<glyph unicode="&#x153;" horiz-adv-x="813" d="M53 207q0 101 57.5 162t153.5 61q51 0 86.5 -18.5t68.5 -62.5q51 81 152 81q89 0 138 -56.5t51 -161.5h-296q-1 -11 -1 -29q0 -84 33.5 -130.5t94.5 -46.5q101 0 143 110l19 -8q-25 -62 -67 -90t-109 -28q-100 0 -158 72q-59 -79 -161 -79q-91 0 -148 62t-57 162z M143 205q0 -203 114 -203q32 0 57.5 19.5t38.5 53.5q18 47 18 133q0 201 -111 201q-56 0 -86.5 -52.5t-30.5 -151.5zM462 232h208q-2 67 -7 93t-19 47q-27 36 -71 36q-37 0 -63.5 -25.5t-36.5 -69.5q-7 -29 -11 -81z" />
<glyph unicode="&#x178;" horiz-adv-x="645" d="M443 724q-22 0 -36.5 14.5t-14.5 36.5t14.5 36t37.5 14q22 0 36.5 -14.5t14.5 -36.5t-14.5 -36t-37.5 -14zM246 724q-22 0 -36.5 14.5t-14.5 36.5t14.5 36t37.5 14t37 -14t14 -37q0 -22 -14.5 -36t-37.5 -14zM193 -1v23h83v256l-212 367h-54v23q112 -4 126 -4q15 0 129 4 v-23h-89l186 -326l126 229q34 60 46 97h-77v23q78 -4 87 -4q10 0 86 4v-23h-48q-44 -59 -72 -111l-139 -256v-256h86v-23q-114 2 -130 2q-14 0 -134 -2z" />
<glyph unicode="&#x2c6;" horiz-adv-x="263" d="M15 487h-33l122 169h56l122 -169h-33l-117 106z" />
<glyph unicode="&#x2dc;" horiz-adv-x="263" d="M1 522h-20q-1 7 -1 19q0 49 23.5 80t61.5 31q24 0 75 -31l24 -15q41 -28 57 -28q41 0 42 74h19q0 -4 0.5 -9t0.5 -7q0 -55 -23 -87t-62 -32q-34 0 -72 26l-27 18q-47 32 -63 32q-36 0 -36 -60q0 -6 1 -11z" />
<glyph unicode="&#x2000;" horiz-adv-x="458" />
<glyph unicode="&#x2001;" horiz-adv-x="917" />
<glyph unicode="&#x2002;" horiz-adv-x="458" />
<glyph unicode="&#x2003;" horiz-adv-x="917" />
<glyph unicode="&#x2004;" horiz-adv-x="305" />
<glyph unicode="&#x2005;" horiz-adv-x="229" />
<glyph unicode="&#x2006;" horiz-adv-x="152" />
<glyph unicode="&#x2007;" horiz-adv-x="152" />
<glyph unicode="&#x2008;" horiz-adv-x="114" />
<glyph unicode="&#x2009;" horiz-adv-x="183" />
<glyph unicode="&#x200a;" horiz-adv-x="50" />
<glyph unicode="&#x2010;" horiz-adv-x="217" d="M0 216v44h217v-44h-217z" />
<glyph unicode="&#x2011;" horiz-adv-x="217" d="M0 216v44h217v-44h-217z" />
<glyph unicode="&#x2013;" horiz-adv-x="526" d="M25 216v44h475v-44h-475z" />
<glyph unicode="&#x2014;" horiz-adv-x="655" d="M0 216v44h655v-44h-655z" />
<glyph unicode="&#x2018;" horiz-adv-x="223" d="M102 436q-25 0 -42 19.5t-17 48.5q0 45 32 91q27 38 93 85l12 -16l-13 -9q-73 -50 -73 -83q0 -16 23 -25q43 -18 43 -56q0 -23 -16.5 -39t-41.5 -16z" />
<glyph unicode="&#x2019;" horiz-adv-x="208" d="M55 437l-12 15l14 9q72 50 72 83q0 16 -23 25q-43 18 -43 56q0 23 16.5 39t41.5 16t42 -19.5t17 -48.5q0 -45 -32 -90q-28 -40 -93 -85z" />
<glyph unicode="&#x201a;" horiz-adv-x="320" d="M102 52q0 25 15 39.5t40 14.5q27 0 42.5 -18t15.5 -50q0 -50 -31 -93t-99 -87l-13 19q93 60 93 98q0 15 -24 24q-39 12 -39 53z" />
<glyph unicode="&#x201c;" horiz-adv-x="390" d="M269 436q-26 0 -42.5 19.5t-16.5 48.5q0 45 32 91q29 40 93 85l12 -16l-14 -9q-72 -50 -72 -83q0 -16 23 -25q42 -17 42 -56q0 -23 -16.5 -39t-40.5 -16zM102 436q-25 0 -42 19.5t-17 48.5q0 45 32 91q27 38 93 85l12 -16l-13 -9q-73 -50 -73 -83q0 -16 23 -25 q43 -18 43 -56q0 -23 -16.5 -39t-41.5 -16z" />
<glyph unicode="&#x201d;" horiz-adv-x="390" d="M222 437l-12 15l13 9q73 50 73 83q0 16 -23 25q-43 18 -43 56q0 23 16.5 39t41.5 16t42 -19.5t17 -48.5q0 -43 -32 -90q-30 -42 -93 -85zM55 437l-12 15l14 9q72 50 72 83q0 16 -23 25q-43 18 -43 56q0 23 16.5 39t41.5 16t42 -19.5t17 -48.5q0 -45 -32 -90 q-28 -40 -93 -85z" />
<glyph unicode="&#x201e;" horiz-adv-x="390" d="M230 52q0 23 16.5 38.5t41.5 15.5q26 0 42.5 -19t16.5 -49q0 -43 -32 -89q-28 -40 -93 -85l-12 16l13 9q73 48 73 82q0 17 -23 26q-43 16 -43 55zM63 52q0 23 16.5 38.5t41.5 15.5q26 0 42.5 -19t16.5 -49q0 -43 -32 -89q-28 -40 -93 -85l-12 16l14 9q72 49 72 82 q0 17 -23 26q-43 16 -43 55z" />
<glyph unicode="&#x2022;" horiz-adv-x="340" d="M169 240q-37 0 -63.5 26.5t-26.5 64.5t26.5 64.5t63.5 26.5q38 0 64.5 -26.5t26.5 -64.5t-26.5 -64.5t-64.5 -26.5z" />
<glyph unicode="&#x2026;" horiz-adv-x="962" d="M740 47q0 25 16.5 41t42.5 16t43 -15.5t17 -40.5t-17 -41.5t-43 -16.5t-42.5 16t-16.5 41zM419 47q0 25 16.5 41t42.5 16t43 -15.5t17 -40.5t-17 -41.5t-43 -16.5t-42.5 16t-16.5 41zM98 47q0 25 16.5 41t42.5 16t43 -15.5t17 -40.5t-17 -41.5t-43 -16.5t-42.5 16 t-16.5 41z" />
<glyph unicode="&#x202f;" horiz-adv-x="183" />
<glyph unicode="&#x2039;" horiz-adv-x="287" d="M54 211l167 205l17 -9l-88 -196l88 -201l-17 -9z" />
<glyph unicode="&#x203a;" horiz-adv-x="287" d="M49 11l88 195l-88 201l16 9l168 -210l-168 -205z" />
<glyph unicode="&#x205f;" horiz-adv-x="229" />
<glyph unicode="&#x20ac;" horiz-adv-x="673" d="M27 277l8 33h58v49h-66l8 33h61q16 133 95.5 210.5t202.5 77.5q53 0 125 -15q45 -11 80 -12q-2 -53 -2 -106q0 -42 1 -78h-22q-20 182 -176 182q-81 0 -138.5 -67t-67.5 -192h342l-9 -33h-334v-49h323l-8 -33h-312q12 -129 67.5 -195t141.5 -66q158 0 171 193h23 q0 -21 -0.5 -47.5t-0.5 -34.5q0 -9 0.5 -38t0.5 -51v-31h-23q-25 0 -55 -3q-84 -17 -132 -17q-124 0 -201.5 77.5t-91.5 212.5h-69z" />
<glyph unicode="&#x2122;" horiz-adv-x="967" d="M114 265v21h50v363q-50 0 -67.5 -3.5t-32.5 -16.5q-27 -21 -28 -76h-23q1 26 1 59q0 32 -1 57q18 -1 29 -1h33q46 -1 65 -1h114q23 0 84 1q22 1 26 1h18q-1 -25 -1 -58q0 -32 1 -58h-22q-1 53 -26 74.5t-85 21.5h-18v-363h53v-21q-54 3 -81 3q-31 0 -89 -3zM417 266v20 h45q7 40 7 79v282h-52v21q45 -3 67 -3q20 0 59 3l138 -318l135 318q34 -3 53 -3q23 0 69 3v-21h-51l5 -361h52v-20q-72 2 -82 2q-11 0 -89 -2v20h52l-3 340l-152 -360h-24l-153 360v-261q0 -38 4 -79h47v-20q-54 2 -62 2q-7 0 -65 -2z" />
</font>
</defs>
</svg>
